<?xml version="1.0" standalone="no"?>
<!DOCTYPE svg PUBLIC "-//W3C//DTD SVG 20010904//EN"
 "http://www.w3.org/TR/2001/REC-SVG-20010904/DTD/svg10.dtd">
<svg version="1.0" xmlns="http://www.w3.org/2000/svg"
 width="16.000000pt" height="16.000000pt" viewBox="0 0 16.000000 16.000000"
 preserveAspectRatio="xMidYMid meet">
<metadata>
Created by potrace 1.11, written by Peter Selinger 2001-2013
</metadata>
<g transform="translate(0.000000,16.000000) scale(0.001882,-0.001882)"
fill="#000000" stroke="none">
<path d="M3999 8496 c-2 -2 -47 -6 -99 -10 -52 -4 -126 -11 -165 -16 -38 -5
-88 -12 -110 -15 -22 -2 -50 -7 -61 -9 -12 -2 -38 -7 -58 -10 -55 -9 -185 -36
-231 -48 -22 -5 -48 -12 -58 -13 -44 -9 -253 -71 -357 -107 -249 -85 -588
-244 -795 -371 -431 -266 -787 -571 -1081 -926 -10 -13 -24 -28 -29 -35 -6 -6
-40 -49 -75 -96 -35 -47 -67 -87 -70 -90 -3 -3 -45 -65 -94 -138 -255 -385
-435 -775 -555 -1199 -18 -62 -34 -121 -36 -130 -1 -10 -8 -36 -13 -58 -6 -22
-13 -52 -16 -66 -2 -14 -13 -73 -25 -130 -20 -102 -23 -122 -36 -224 -3 -27
-8 -63 -10 -80 -21 -161 -28 -684 -12 -845 15 -144 30 -257 48 -360 15 -91 20
-113 30 -160 6 -25 13 -56 15 -70 18 -101 154 -540 176 -567 6 -7 7 -13 4 -13
-4 0 -1 -10 6 -22 6 -13 13 -27 14 -33 9 -43 171 -379 233 -483 17 -29 31 -55
31 -57 0 -25 324 -491 396 -570 11 -12 43 -50 73 -85 58 -69 336 -349 411
-414 512 -445 1142 -774 1775 -928 101 -24 422 -84 495 -92 169 -18 234 -21
535 -21 292 0 431 5 515 19 14 3 43 7 65 10 59 7 202 31 257 42 15 3 30 5 33
5 2 0 19 5 37 10 18 5 47 12 63 15 17 2 88 21 158 40 786 216 1499 659 2047
1274 36 40 70 78 75 84 20 22 182 231 205 266 13 19 27 37 30 40 12 10 150
229 205 325 111 193 252 497 307 660 10 33 23 69 28 80 19 42 102 333 113 395
3 14 10 43 15 65 6 22 13 54 16 70 2 17 14 84 25 151 11 67 23 143 26 170 3
27 8 81 13 119 16 154 8 778 -13 920 -23 166 -38 256 -45 285 -5 19 -11 51
-14 70 -3 19 -8 45 -11 58 -3 12 -7 30 -9 40 -5 20 -19 74 -43 162 -166 609
-496 1216 -917 1690 -87 97 -356 360 -451 439 -414 344 -880 605 -1386 774
-142 47 -391 115 -484 131 -16 3 -66 12 -110 21 -44 8 -102 17 -130 20 -27 3
-57 8 -65 10 -8 3 -42 7 -75 10 -33 4 -78 8 -100 11 -51 5 -631 15 -636 10z"/>
</g>
</svg>
