<?xml version="1.0" encoding="utf-8"?>
<!-- Generator: Adobe Illustrator 18.0.0, SVG Export Plug-In . SVG Version: 6.00 Build 0)  -->
<!DOCTYPE svg PUBLIC "-//W3C//DTD SVG 1.1//EN" "http://www.w3.org/Graphics/SVG/1.1/DTD/svg11.dtd">
<svg version="1.1" id="Layer_1" xmlns="http://www.w3.org/2000/svg" xmlns:xlink="http://www.w3.org/1999/xlink" x="0px" y="0px"
	 width="741.4px" height="816.3px" viewBox="0 0 741.4 816.3" style="enable-background:new 0 0 741.4 816.3;" xml:space="preserve"
	>
<style type="text/css">
	.st0{fill:#283593;}
	.st1{fill:url(#SVGID_1_);}
	.st2{fill:#212121;}
	.st3{fill:#6D4C41;}
	.st4{fill:#FFA000;}
	.st5{fill:#ECEFF1;}
	.st6{clip-path:url(#SVGID_3_);fill:#B0BEC5;}
	.st7{display:none;fill:#FFCCBC;}
	.st8{fill:#8C6D62;}
	.st9{fill:#B0BEC5;}
	.st10{fill:#FFB300;}
	.st11{fill:#EF6C00;}
	.st12{fill:#894D16;}
	.st13{fill:#0A0A0A;}
	.st14{fill:#FFCCBC;}
	.st15{fill:#1E1E1E;}
</style>
<g id="Indigo_800">
	<rect y="-2.4" class="st0" width="742" height="820.9"/>
</g>
<g id="_x32__1_">
	<g id="Scientist_1_">
		<g id="Layer_18">
			
				<radialGradient id="SVGID_1_" cx="358.8143" cy="300.5927" r="333.5355" gradientTransform="matrix(1 0 0 -1 0 816)" gradientUnits="userSpaceOnUse">
				<stop  offset="0" style="stop-color:#3F51B5"/>
				<stop  offset="1" style="stop-color:#3F51B5;stop-opacity:0"/>
			</radialGradient>
			<path class="st1" d="M0,640.9v217.4h745.6V640.9H0z M667.1,858.2l-203-203h35.6l203,203H667.1z"/>
		</g>
		<g id="Scientist">
			<path id="Grey_900" class="st2" d="M483.8,648.3l0.4,7h15.5c0,0-0.1-3.5-5.5-3.5c-5.3,0-5.8-4-5.8-4h-4.7v0.5H483.8z"/>
			<path id="Grey_900_1_" class="st2" d="M473.6,655.3h-9.5l-6.5-3.4l1.9-5l4.4,1c0,0-0.1,2.6,1.4,3.2
				C468.6,652.3,473.6,651,473.6,655.3z"/>
			<path id="Brown_600" class="st3" d="M484.1,587.3h-4.5h-7.9c-1.2,30-12.8,59.6-12.8,59.6l5.7,1.5c7.1-11.6,12.6-30.9,15.9-44.7
				l2.6,44.8h5.9l2.5-61.3h-7.4V587.3z"/>
			<path id="Sun_Ray__x28_Amber_700_x29_" class="st4" d="M505.7,430.7c23.5,31.9,33.5,72.1,27.8,111.3l0.1,0.5l42.1-70.2
				l-70.2-42.1L505.7,430.7z"/>
			<g id="Layer_15">
				<path class="st5" d="M513.5,512L513.5,512c-1,0.2-2-0.5-2.1-1.5l-4-24.3c-0.2-1,0.5-2,1.5-2.1l0,0c1-0.2,2,0.5,2.1,1.5l4,24.3
					C515.2,510.9,514.5,511.8,513.5,512z"/>
				<g>
					<g>
						<defs>
							<path id="SVGID_2_" d="M513.5,512L513.5,512c-1,0.2-2-0.5-2.1-1.5l-4-24.3c-0.2-1,0.5-2,1.5-2.1l0,0c1-0.2,2,0.5,2.1,1.5
								l4,24.3C515.2,510.9,514.5,511.8,513.5,512z"/>
						</defs>
						<clipPath id="SVGID_3_">
							<use xlink:href="#SVGID_2_"  style="overflow:visible;"/>
						</clipPath>
						<polyline class="st6" points="507.5,486.5 513.5,492.5 513.5,484.9 507.1,484.9 507.5,486.5 						"/>
					</g>
				</g>
				<g id="Layer_16">
				</g>
				
					<ellipse transform="matrix(-0.162 -0.9868 0.9868 -0.162 123.5316 1048.1128)" class="st4" cx="506.8" cy="471.6" rx="10.9" ry="3.5"/>
				<path class="st5" d="M515.7,470.2c-1.3-8.2-6.4-14.2-11.3-13.4c-4.9,0.8-7.7,8.1-6.4,16.3c1.3,8.2,6.4,14.2,11.3,13.4
					C514.2,485.7,517.1,478.4,515.7,470.2z M507.2,483.5c-2.7,0.4-5.8-4.4-6.8-10.8c-1.1-6.4,0.3-12,3-12.4s5.8,4.4,6.8,10.8
					C511.3,477.5,510,483,507.2,483.5z"/>
			</g>
			<path class="st7" d="M489.3,500.2l-6-21.3l-14.1,5.3l2.6,10c-2,0.3-3.5,1.9-3.5,4c0,2.2,1.8,4,4,4c0.5,0,1-0.1,1.4-0.3l4.3,16.8
				l7.6-0.8l-0.8-15.3L489.3,500.2z"/>
			<path class="st8" d="M488.8,498.5l-5-17.8c-0.3-1-1.2-1.4-2.2-1.1l-10.8,4c-0.9,0.3-1.5,1.4-1.2,2.4l1.7,6.5c0.2,0.6,0,1.4-0.4,2
				c-1.5,0.6-2.6,2-2.6,3.8l0,0l0,0c0,2.2,1.8,4,4,4c0.5,0,0.5,0,0.5,0c0.5-0.2,1.1,0.5,1.4,1.5l3.4,13.3c0.2,1,1.3,1.7,2.2,1.6
				l4-0.4c1-0.1,1.8-1,1.7-2l-0.6-11.7c0-1,0.6-2.2,1.5-2.7l1.3-0.7C488.6,500.6,489.1,499.5,488.8,498.5z"/>
			<g id="Layer_14">
				<path class="st8" d="M514.6,519.2c0,0,2.5-2.3,4.3-6.4c1.4-3.1,0.4-5.4-2.4-7.2c-2.2-1.4-5.1,0.5-5.4,1.8c0,0-0.2-2.8-0.8-3.2
					c-0.6-0.4-1.6,0.3-1.3,1.6c0.4,1.3-0.5,6-0.6,7.1c-0.1,1.1,0.9,2.5,1.3,2.8s-0.1,1.9-0.1,1.9L514.6,519.2z"/>
				<path class="st8" d="M530,518.3c0,0,0.9-1.5,0.7-2s-1.2-1.9,0.6-4.5c1.8-2.6,3-7.1,3-7.1s0.1,1.2,0.2,2.3c0,0,0.9-4.7,1.2-5.3
					c0.3-0.7,1.2-1.8,2-1.2s0.5,2.4,0.5,3s2.7,3,2,7.2c-0.7,4.2-3,7.9-6.2,11.8L530,518.3z"/>
			</g>
			<path class="st5" d="M480.9,488.6c0,0-2.1-4.4-7.2-2.3c0,0-1,0.3-2,0.2c-2-0.2-4.2-1.8-5.8-1.5c-2,0.1-3.6,1.7-3.6,3.8
				c0,0.9,0.3,1.7,0.8,2.3c-1.8,0.3-3.3,1.8-3.3,3.7c0,1.5,0.9,2.8,2.1,3.4c-0.7,0.8-1.1,1.7-1.1,2.8c0,2.4,1.9,4.3,4.3,4.3
				c1.1,0,2.1-0.4,2.8-1.1c0,0.2-0.1,0.5-0.1,0.7c0,2.1,1.7,3.8,3.8,3.8c1.4,0,2.6-0.8,3.3-2l-1.2-4.8c-0.4,0.2-0.9,0.3-1.4,0.3
				c-2.2,0-4-1.8-4-4s1.8-4,4-4s4,1.8,4,4c0,0.4-0.1,0.7-0.1,1l2-0.5C478.2,498.8,475.2,491.2,480.9,488.6z"/>
			<path class="st5" d="M487.4,505.7c0-1.2-1-2.2-2.2-2.2c-0.3,0-0.6,0.1-0.8,0.2l0,0l0,0l0,0c-0.3,0.1-3.2,1.4-2.2,6.3l0,0
				c0.1,0.3,0.3,0.6,0.7,0.6c0.4,0,0.6-0.3,0.7-0.6l0,0c0,0,0.3-1.3,2.2-2.1l0,0C486.7,507.5,487.4,506.7,487.4,505.7z"/>
			<path id="Blue_Grey_200_2_" class="st9" d="M515.9,518.6c0,0-7.2,19.8-17.9,22.1s-19.2-5.6-19.2-5.6s-1.9-6.2,4.1-8
				c0,0,4.7,5.6,11.8,4.9s15-15.3,15-15.3L515.9,518.6z"/>
			<rect id="Blue_Grey_200_1_" x="482.7" y="556.3" class="st9" width="8.8" height="31"/>
			<path id="Blue_Grey_50" class="st5" d="M460.2,615.5c0,0,0-7.5,3-17.2c2.6-8.5,5.1-23.2,5.1-42.3s-1.6-21.8-1.6-21.8
				s-1.4-5.7,4.4-10c5.6-4.1,9.8-0.6,11.1,1c1.3,1.6,10.6,13.3,15.4,14c3.5,0.5,11.5,3.2,32.1-21.8l4.9,4.9c0,0-7.6,10.9-13.9,17.4
				c-4.2,4.3-13.1,10.3-18.6,11.4c-4.1,0.8-10-0.2-10.5-0.4c0,0,1.7,32.3-15.6,64.8L460.2,615.5L460.2,615.5z"/>
			<path id="Blue_Grey_200" class="st9" d="M474.7,538.2c2.9,10.1,14.8,16.9,17.1,18.1c0.1-3.6,0-5.6,0-5.6s0.1,0,0.2,0
				C484.2,548.5,474.7,538.2,474.7,538.2z"/>
		</g>
	</g>
	<g id="Sun">
		<g id="Layer_12">
			<polygon class="st4" points="499.3,341.8 499.3,144.1 219.7,144.1 219.7,423.7 417.3,423.7 			"/>
		</g>
		<g id="Amber_600_1_">
			<g>
				<polygon class="st10" points="359.5,86.2 161.8,283.9 359.5,481.6 557.1,283.9 				"/>
			</g>
		</g>
		<g id="Orange_800">
			<g>
				<ellipse class="st11" cx="359.5" cy="283.9" rx="151.2" ry="151.2"/>
			</g>
		</g>
	</g>
	<g id="The_Eclipse_Megamovie_Project_will_add_a_new_dimension_to_our_s_1_">
	</g>
	<g id="Expected_Science_Discoveries">
	</g>
	<g>
		<path class="st12" d="M603.6,564.4c4.6,7.6,6.1,15.9,5.6,24.6c-0.2,4.2-0.2,8.5-0.1,12.7c0.1,3.8,1.6,7,4.7,9.5
			c3.5,2.7,5.6,6.6,7.6,10.5c3.2,6.4,5.9,13.2,11.5,18.1c1.1,1,0.5,1.5-0.3,2.1c-4,3.2-8,6.5-12.2,9.9c-0.7-2.9,0-5.2,1.7-6.8
			c2.7-2.6,1.8-4.8-0.3-7.1c-4.4-5-8.5-10.3-13.2-14.9c-8.3-8.2-12.1-18.3-13.8-29.5c-0.2-1.2-0.3-2.5-1.1-3.5
			c-2.3,10.9-2.6,21.9-1.4,33c0.6,5,0.4,10,0.1,15.1c-0.3,5-0.4,10.1,0.5,15c0.3,1.6-0.2,2-1.7,2c-5.6-0.1-11.1,0-16.9,0
			c0.4-2.8,2.3-3.7,4.4-4.5c6-2.4,6.4-2.8,5.6-9.1c-1.3-10.9-3-21.7-4.1-32.6c-1.5-14.3-3.1-28.7-0.3-43c0.7-0.8,1.8-0.9,2.8-1.1
			c5.7-1,11.5-0.6,17.2-1.3C601.1,563.2,602.5,563.4,603.6,564.4z"/>
		<path class="st5" d="M603.6,564.4c-7.9,0.5-15.9,0.9-23.8,1.4c-0.3-6.6,0.4-13.2-1.6-19.6c-0.3,0.1-0.6,0-0.7,0.2
			c-7.7,6.1-7.8,6.1-15.1-0.3c-2.8-2.5-5.5-5.1-8.2-7.7c-0.2-2,0.2-3.7,2.1-4.7c3.5,2.4,7,4.9,10.6,7.3c0.8,0.5,1.7,1.1,2.8,0.8
			c2.3-0.8,2.8-3,1-4.7c-0.7-0.7-1.5-1.4-2.2-2.1c-0.7-2.3-0.6-4.3,2.2-5c5.2,4.1,5.2,4.1,8.8-1.2c1.6-2.4,3.3-4.7,4.9-7
			c2.5-0.5,5,0,7.4-0.8c1,0.5,1.4,1.5,1.7,2.4c1.1,3.2,2.4,6.3,4.8,8.8c0.5,0.5,0.8,1.1,0.6,1.9C597,544.7,598.4,554.8,603.6,564.4z
			"/>
		<path class="st13" d="M598.8,534.1c-3.9-3.5-5.5-8.1-7-12.9c-1.5-0.8-1.6-2.4-2-3.8c-1.1-3.8-1.7-7.8-2.3-11.7
			c-0.5-3.5-2.3-5.5-5.8-6c-1.2-0.1-2.5-0.1-3.3-1.4c-2.2-2.4-2-4.9,0.8-7.2c5.9-5,14.9-2.3,17.1,5c0.8,2.7,1.3,5.5,1.9,8.3
			c1,4.8,3.1,8.7,7.4,11.4c2.9,1.8,5.1,4.2,6.6,7.3c1.9,3.9,1.5,8.6-0.9,10.9c-2.4,2.4-6.6,2.7-10.6,0.9
			C600,534.6,599.4,534.3,598.8,534.1z"/>
		<path class="st14" d="M578.4,498.3c8.9,1.2,8.9,1.2,10.6,9.9c0.9,4.3,1.9,8.6,2.8,13c-2.3,2-4.9,1.5-7.4,0.5
			c2.5-4.8,2.2-6.3-2.1-9.5c-3.5-2.7-3.4-6.7-4-10.5C578.1,500.6,578.3,499.4,578.4,498.3z"/>
		<path class="st14" d="M570.7,529.9c-1.6,1.3-2,3.1-2.2,5c-2.2-1.3-4.3-2.8-6.2-4.7c-1.2-1.1-1.9-2.5-1.9-4.2
			c0-1.8,0.5-2.4,2.5-1.5c0.9,0.4,2.8,4.3,3.7-0.3c0.2-0.8,1.3,0.3,1.6,1C568.8,526.9,569.4,528.6,570.7,529.9z"/>
		<path class="st14" d="M556.3,533.6c-0.7,1.6-1.4,3.1-2.1,4.7c-2.9-1.6-5.8-3.3-7.3-6.4c-0.6-1.2-1-2.4,0.1-3.4s1.8,0.2,2.7,0.7
			c1,0.5,2.1,1.7,2.7-0.6c0.4-1.6,1.3-0.7,1.8,0.2C554.8,530.3,555.5,532,556.3,533.6z"/>
	</g>
	<path class="st15" d="M578.6,650.5c-2,0.8-4,1.7-4.4,4.5c5.8,0,11.3,0,16.9,0c1.5,0,2-0.4,1.7-2c-0.5-2.9-0.7-5.9-0.7-8.9h-7.6
		C584.7,647.8,583.6,648.5,578.6,650.5z"/>
	<path class="st15" d="M620.3,651.8c4.3-3.5,8.3-6.7,12.2-9.9c0.8-0.6,1.4-1.1,0.3-2.1c-2.6-2.3-4.6-5.1-6.3-8l-6.9,3.6
		c0.7,0.8,1.4,1.7,2.2,2.5c2,2.3,2.9,4.5,0.3,7.1C620.3,646.6,619.6,648.9,620.3,651.8z"/>
	<polyline class="st0" points="574.3,655 742,818.5 740.6,790.7 591.2,655 	"/>
</g>
</svg>
