<?xml version="1.0" encoding="utf-8"?>
<!-- Generator: Adobe Illustrator 18.0.0, SVG Export Plug-In . SVG Version: 6.00 Build 0)  -->
<!DOCTYPE svg PUBLIC "-//W3C//DTD SVG 1.1//EN" "http://www.w3.org/Graphics/SVG/1.1/DTD/svg11.dtd">
<svg version="1.1" id="_x33__1_" xmlns="http://www.w3.org/2000/svg" xmlns:xlink="http://www.w3.org/1999/xlink" x="0px" y="0px"
	 width="763.1px" height="426.2px" viewBox="0 0 763.1 426.2" style="enable-background:new 0 0 763.1 426.2;" xml:space="preserve"
	>
<style type="text/css">
	.st0{fill:#0F9D58;}
	.st1{fill:#FFECB3;}
	.st2{fill:#FFE082;}
	.st3{fill:#FFD54F;}
	.st4{fill:#FFCA28;}
	.st5{fill:#FFB300;}
	.st6{fill:#FF6F00;}
	.st7{fill:#5C6BC0;}
	.st8{fill:#9FA8DA;}
	.st9{fill:#C5CAE9;}
	.st10{fill:#E8EAF6;}
	.st11{fill:#1A237E;}
</style>
<g id="Layer_0_xA0_Image_1_">
	<rect x="0" y="0" class="st0" width="763.1" height="426.2"/>
</g>
<g id="Group_1_copy_4_1_">
	<g id="USA_1_">
		<g id="USA">
			<polygon class="st1" points="70.4,52.1 411.3,52.1 433.8,74.6 516.6,74.6 565.4,123.4 565.4,192 613.2,144.2 639.2,144.2 
				661.5,121.8 725.4,121.8 658.2,189 658.2,240.5 585.9,312.8 585.9,384.1 536.4,334.6 422.9,334.6 376.7,380.8 329.7,333.7 
				209.4,333.7 69.4,193.7 			"/>
		</g>
		<g id="USA_2">
			<g>
				<path class="st2" d="M460.5,253.4h-53.1v-8.8h-89.5v-58.8H214.3v-15H69.6c0,6.2-0.1,22.9-0.1,22.9l140,140h120.3l47,47
					l46.1-46.1h68v-59.8h-30.4V253.4z"/>
				<polygon class="st2" points="661.5,121.8 639.2,144.2 613.2,144.2 565.4,192 565.4,178.4 558.1,178.1 551.5,213.2 554.1,217.1 
					574.9,191.6 574.9,209.8 561.2,209.8 561.2,240.1 658.2,240.1 658.2,189 725.4,121.8 				"/>
				<polygon class="st2" points="565.4,167.8 532.4,167.8 532.5,166.8 518.1,166.8 518.2,167.8 500.9,167.8 499.3,172.4 
					518.9,173.4 522.5,205.2 526.5,204.5 531.4,174 565.4,175.7 				"/>
				<polygon class="st2" points="507.8,154.1 518.1,154.1 565.4,154.1 565.4,123.4 534,92 514.4,92 514.4,74.6 433.8,74.6 
					422.9,63.7 419.4,63.7 419.4,111.9 394.3,111.9 394.3,52.1 285.1,52.1 285.1,113.5 383.2,113.5 383.2,149.7 387.8,151.9 
					443.5,149.9 443.5,154.1 463.3,154.1 463.3,128.1 448.7,128.1 448.7,124.7 497.4,124.7 497.4,154.1 				"/>
			</g>
		</g>
		<g id="Other_states">
			<polygon class="st3" points="69.5,170.9 117.4,170.9 117.4,194.3 197.8,274.8 197.8,300.2 175.9,300.2 69.4,193.7 			"/>
			<polygon class="st3" points="121.6,170.9 181.5,170.9 181.5,250.9 121.8,191.2 			"/>
			<rect x="185.7" y="170.9" class="st3" width="28.6" height="69.2"/>
			<rect x="213.4" y="185.8" class="st3" width="26.2" height="54.2"/>
			<rect x="243.7" y="185.8" class="st3" width="74.1" height="54.2"/>
			<rect x="243.7" y="244.5" class="st3" width="74.1" height="64.1"/>
			<rect x="243.7" y="308.6" class="st3" width="22.1" height="25.1"/>
			<polygon class="st3" points="180.9,305.2 202.8,305.2 202.8,273 185.6,255.8 185.6,244.5 239.6,244.5 239.6,333.7 209.4,333.7 
							"/>
			<polygon class="st3" points="270.8,333.7 270.8,313.5 321.8,313.5 321.8,244.6 345.7,244.6 345.7,279.6 393.2,292.1 414.5,292.1 
				414.5,326.6 422.7,334.8 376.7,380.8 329.7,333.7 			"/>
			<polygon class="st3" points="349.5,244.6 407.4,244.6 407.4,286.5 392.5,286.5 349.5,276.5 			"/>
			<polygon class="st3" points="418.5,296.8 448.1,296.8 458.5,271.9 460.5,270.7 460.5,253.6 411.1,253.4 411.1,286.3 418.5,286.5 
							"/>
			<polygon class="st3" points="427.4,334.6 418.6,325.8 418.6,301.3 447.8,301.3 447.8,327.5 463.4,327.5 463.4,334.6 			"/>
			<polygon class="st3" points="463.4,274.8 482.4,274.8 482.4,334.6 467.7,334.6 467.7,324 452,324 452,300.5 			"/>
			<polygon class="st3" points="486.8,274.8 511.9,274.8 519.1,306.4 519.1,334.6 486.8,334.6 			"/>
			<polygon class="st3" points="536.4,334.6 585.9,334.6 585.9,384.1 			"/>
			<polygon class="st3" points="70.1,93.9 78,94 83,101.8 117.3,96.1 140.6,96.1 140.6,52.1 70.4,52.1 			"/>
			<polygon class="st3" points="164.2,52.1 164.2,70.7 183.2,89.7 179.7,105.3 214.3,120 214.3,113.5 298.9,113.5 298.9,52.1 			"/>
			<polygon class="st3" points="302.2,52.1 302.2,103.1 383.9,103.1 377.8,52.1 			"/>
			<polygon class="st3" points="302.2,107.1 383.9,107.1 383.1,149.4 366.8,144.6 302.2,144.6 			"/>
			<polygon class="st3" points="397.9,182.4 446.3,182.4 454.6,170.8 448.7,152.7 448.7,144.6 387.9,144.6 387.9,151.9 			"/>
			<polygon class="st3" points="387.9,139.8 445.7,139.8 427.1,105.2 454.6,74.6 433.8,74.6 411.3,52.1 381.7,52.1 387.9,103.5 			
				"/>
			<polygon class="st3" points="454.6,154.1 501.3,154.1 501.3,117.7 492.9,117.7 453.2,92 467.5,74.6 459.9,74.6 433.1,105.2 
				454.6,144.6 			"/>
			<polygon class="st3" points="471.8,74.6 459.1,90.4 493.7,113.1 504.3,113.1 517,100.7 542.7,100.7 516.6,74.6 			"/>
			<polygon class="st3" points="506.8,117.4 517.8,105.6 547.5,105.6 547.5,152.6 552.2,152.6 562.4,142.5 562.4,120.4 565.4,123.4 
				565.4,167.8 500.9,167.8 506.8,154.1 			"/>
			<polygon class="st3" points="496.1,220.6 522.5,205.2 522.5,172.4 499.3,172.4 499.3,205.9 			"/>
			<polygon class="st3" points="526.5,172.4 565.4,172.4 565.4,192 551.5,213.2 526.5,204.5 			"/>
			<polygon class="st3" points="554.1,217.1 574.8,182.5 574.8,202.9 602.7,202.9 572.6,233 561.4,233 			"/>
			<polygon class="st3" points="554.1,244.6 561.7,237.1 574.9,237.1 602.3,209.8 623.7,231.2 658.2,231.2 658.2,240.5 654.1,244.6 
							"/>
			<polygon class="st3" points="605.1,202.9 605.1,206.4 625.5,226.8 658.2,226.8 658.2,221.2 631.7,221.2 631.7,202.9 			"/>
			<polygon class="st3" points="635,202.9 635,217.3 658.2,217.3 658.2,193.6 641.8,180.9 			"/>
			<polygon class="st3" points="577.9,179.4 577.9,199.7 631.7,199.7 638.8,178.6 634.4,170.2 587.2,170.2 			"/>
			<polygon class="st3" points="591.4,165.9 636.8,165.9 642.7,177.2 650.3,182.5 650.3,164.3 656.6,154.6 656.6,126.7 639.2,144.2 
				613.2,144.2 			"/>
			<polygon class="st3" points="659.7,123.7 659.7,153.2 666.9,153.2 679.6,121.8 661.5,121.8 			"/>
			<polygon class="st3" points="671.5,153.2 683.1,153.2 683.1,121.8 			"/>
			<polygon class="st3" points="686.6,121.8 686.6,153.2 694,153.2 725.4,121.8 			"/>
			<polygon class="st3" points="689.9,157.3 659.7,157.3 654.8,164.5 682.7,164.5 			"/>
			<polygon class="st3" points="678.5,168.7 654.8,168.7 654.8,185.4 658.3,188.9 			"/>
			<polygon class="st3" points="551.7,109.7 551.7,146.6 558.1,140.2 558.1,116.1 			"/>
		</g>
		<g id="Totality_States">
			<polygon class="st4" points="69.6,167.1 144,167.1 144,120.4 151.4,107.6 143.3,100.9 117.4,100.9 81,107.3 74.9,97.7 70.1,97.7 
							"/>
			<polygon class="st4" points="145.2,52.1 145.2,97.7 156.4,106.9 148.6,121.1 148.6,167.1 214.3,167.1 214.3,124.9 175.3,107.5 
				178.6,90.7 159,71.1 159,52.1 			"/>
			<rect x="217.9" y="117.9" class="st4" width="80.9" height="63"/>
			<polygon class="st4" points="302.2,148.9 302.2,182 321.6,182 321.6,195.2 397.9,195.2 384,155 365.7,148.9 			"/>
			<polygon class="st4" points="399.3,187.7 411,218.1 411,249.1 460.2,249.1 474.9,237.9 444.3,199.5 444.3,187.7 			"/>
			<polygon class="st4" points="454.9,158.5 459.7,170.8 448.7,187.7 448.7,197.6 478.7,234.6 489,226.5 493.7,204.4 493.7,170.3 
				499.3,158.5 			"/>
			<polygon class="st4" points="472.9,244.6 494.6,226.8 525.6,209.8 548.5,216.9 557.2,235.2 547,244.6 			"/>
			<polygon class="st4" points="466.5,249.1 463.7,251.3 463.7,270.7 528.7,270.7 556.2,249.1 			"/>
			<polygon class="st4" points="515.2,274.8 541.5,274.8 585.9,326.9 585.9,331.6 522.8,331.6 522.8,306.3 			"/>
			<polygon class="st4" points="546.9,274.8 582.3,274.8 602.8,295.9 585.9,312.8 585.9,321.6 			"/>
			<path class="st4" d="M535.2,270.7l27.2-21.6h87.2l-44.3,44.3c0,0-20.9-22.4-21.3-22.7C583.7,270.4,535.2,270.7,535.2,270.7z"/>
			<polygon class="st4" points="407.4,240.1 321.8,240.1 321.8,199.9 399.3,199.9 407.4,219.9 			"/>
		</g>
	</g>
	<g id="Film_Strip">
		<g id="Strip">
			<path class="st5" d="M54,95.8c0,0,222.8-30.1,555.8,193.1l9.8-9.8l0.3,67.2c0,0-339.7-224.5-550.2-195.7L69.6,172L54,156.1
				L54,95.8z"/>
			<g>
				<path class="st6" d="M69.7,150.6c0,0-8.9,1.6-15.7,5.5l0,0L69.6,172L69.7,150.6z"/>
				<polygon class="st6" points="619.7,295.5 619.6,279.2 609.8,288.9 				"/>
			</g>
		</g>
		<g id="Slides">
			<g id="Layer_20">
				<path class="st7" d="M54,104.1c0,0,216.7-35.6,565.9,200.6v32.1c0,0-349.1-231.3-565.9-191.4L54,104.1z"/>
			</g>
			<g id="Layer_24">
				<path class="st8" d="M454.6,243.6c20.3,10,39.5,20,57,29.5v-35.7c-19.5-11.1-38.5-21.3-57-30.6V243.6z"/>
			</g>
			<g id="Layer_25">
				<path class="st9" d="M511.6,273.1c22.4,12.1,42.1,23.4,58.5,33v-33.9c-20-12.5-39.5-24.1-58.5-34.9V273.1z"/>
			</g>
			<g id="Layer_26">
				<path class="st10" d="M570.1,306.1c31.2,18.4,49.8,30.7,49.8,30.7v-32.1c-16.9-11.4-33.5-22.2-49.8-32.4V306.1z"/>
			</g>
		</g>
		<g id="dividing_lines">
			<rect x="99.8" y="99.7" class="st5" width="3.4" height="43.3"/>
			<rect x="157.1" y="105.6" class="st5" width="3.4" height="43.3"/>
			<rect x="216.3" y="114.4" class="st5" width="3.4" height="43.3"/>
			<rect x="275.3" y="131.3" class="st5" width="3.4" height="43.3"/>
			<rect x="335.3" y="150.4" class="st5" width="3.4" height="43.3"/>
			<rect x="393.7" y="174.9" class="st5" width="3.4" height="43.3"/>
			<rect x="453" y="202.9" class="st5" width="3.4" height="43.3"/>
			<rect x="509.9" y="234.6" class="st5" width="3.4" height="43.3"/>
			<rect x="568.4" y="268" class="st5" width="3.4" height="43.3"/>
		</g>
		<g id="holes_1_">
			<g>
				<path class="st1" d="M617.4,300.8l-3.3-2.2l2.2-3.3l3.3,2.2L617.4,300.8z M611.6,296.9l-3.3-2.2l2.2-3.3l3.3,2.2L611.6,296.9z
					 M605.7,293.1c-1.1-0.7-2.2-1.5-3.3-2.2l2.2-3.3c1.1,0.7,2.2,1.5,3.3,2.2L605.7,293.1z M599.9,289.2l-3.3-2.2l2.2-3.3l3.4,2.2
					L599.9,289.2z M594,285.4c-1.1-0.7-2.2-1.5-3.4-2.2l2.2-3.4c1.1,0.7,2.2,1.5,3.4,2.2L594,285.4z M588.2,281.6
					c-1.1-0.7-2.2-1.4-3.4-2.2l2.2-3.4c1.1,0.7,2.2,1.4,3.4,2.2L588.2,281.6z M582.3,277.8c-1.1-0.7-2.2-1.4-3.4-2.1l2.1-3.4
					c1.1,0.7,2.3,1.4,3.4,2.2L582.3,277.8z M576.4,274.1c-1.1-0.7-2.3-1.4-3.4-2.1l2.1-3.4c1.1,0.7,2.3,1.4,3.4,2.1L576.4,274.1z
					 M570.4,270.3c-1.1-0.7-2.3-1.4-3.4-2.1l2.1-3.4c1.1,0.7,2.3,1.4,3.4,2.1L570.4,270.3z M564.5,266.6c-1.1-0.7-2.3-1.4-3.4-2.1
					l2.1-3.4c1.1,0.7,2.3,1.4,3.4,2.1L564.5,266.6z M558.6,263l-3.4-2.1l2.1-3.4l3.4,2.1L558.6,263z M552.6,259.3l-3.4-2.1l2.1-3.4
					l3.4,2.1L552.6,259.3z M546.6,255.7l-3.4-2.1l2.1-3.4l3.4,2.1L546.6,255.7z M540.6,252.1c-1.1-0.7-2.3-1.4-3.4-2l2-3.4
					c1.1,0.7,2.3,1.4,3.4,2L540.6,252.1z M534.6,248.6c-1.1-0.7-2.3-1.4-3.4-2l2-3.5c1.2,0.7,2.3,1.4,3.5,2L534.6,248.6z M528.6,245
					c-1.2-0.7-2.3-1.3-3.5-2l2-3.5c1.2,0.7,2.3,1.3,3.5,2L528.6,245z M522.5,241.5l-3.5-2l2-3.5l3.5,2L522.5,241.5z M516.4,238
					c-1.2-0.7-2.3-1.3-3.5-2l2-3.5c1.2,0.7,2.3,1.3,3.5,2L516.4,238z M510.4,234.6c-1.2-0.7-2.3-1.3-3.5-2l2-3.5
					c1.2,0.7,2.3,1.3,3.5,2L510.4,234.6z M504.3,231.2c-1.2-0.7-2.3-1.3-3.5-1.9l1.9-3.5c1.2,0.6,2.3,1.3,3.5,1.9L504.3,231.2z
					 M498.1,227.8c-1.2-0.6-2.3-1.3-3.5-1.9l1.9-3.5c1.2,0.6,2.3,1.3,3.5,1.9L498.1,227.8z M492,224.4c-1.2-0.6-2.3-1.3-3.5-1.9
					l1.9-3.5c1.2,0.6,2.3,1.3,3.5,1.9L492,224.4z M485.9,221.1c-1.2-0.6-2.3-1.3-3.5-1.9l1.9-3.5c1.2,0.6,2.4,1.3,3.5,1.9
					L485.9,221.1z M479.7,217.8c-1.2-0.6-2.4-1.3-3.5-1.9l1.9-3.5c1.2,0.6,2.4,1.2,3.5,1.9L479.7,217.8z M473.5,214.5
					c-1.2-0.6-2.4-1.2-3.5-1.9l1.9-3.5c1.2,0.6,2.4,1.2,3.5,1.9L473.5,214.5z M467.3,211.3c-1.2-0.6-2.4-1.2-3.6-1.8l1.8-3.6
					c1.2,0.6,2.4,1.2,3.6,1.8L467.3,211.3z M461.1,208c-1.2-0.6-2.4-1.2-3.6-1.8l1.8-3.6c1.2,0.6,2.4,1.2,3.6,1.8L461.1,208z
					 M454.9,204.9c-1.2-0.6-2.4-1.2-3.6-1.8l1.8-3.6c1.2,0.6,2.4,1.2,3.6,1.8L454.9,204.9z M448.6,201.7c-1.2-0.6-2.4-1.2-3.6-1.8
					l1.8-3.6c1.2,0.6,2.4,1.2,3.6,1.8L448.6,201.7z M442.4,198.6c-1.2-0.6-2.4-1.2-3.6-1.8l1.8-3.6c1.2,0.6,2.4,1.2,3.6,1.8
					L442.4,198.6z M436.1,195.6c-1.2-0.6-2.4-1.2-3.6-1.7l1.7-3.6c1.2,0.6,2.4,1.2,3.6,1.7L436.1,195.6z M429.8,192.5
					c-1.2-0.6-2.4-1.2-3.6-1.7l1.7-3.6c1.2,0.6,2.4,1.1,3.6,1.7L429.8,192.5z M423.5,189.5c-1.2-0.6-2.4-1.1-3.6-1.7l1.7-3.6
					c1.2,0.6,2.4,1.1,3.6,1.7L423.5,189.5z M417.2,186.5c-1.2-0.6-2.4-1.1-3.6-1.7l1.7-3.6c1.2,0.6,2.4,1.1,3.6,1.7L417.2,186.5z
					 M410.8,183.6c-1.2-0.6-2.4-1.1-3.6-1.7l1.7-3.6c1.2,0.6,2.4,1.1,3.6,1.7L410.8,183.6z M404.4,180.7c-1.2-0.5-2.4-1.1-3.6-1.6
					l1.6-3.7c1.2,0.5,2.4,1.1,3.7,1.6L404.4,180.7z M398.1,177.9c-1.2-0.5-2.4-1.1-3.7-1.6l1.6-3.7c1.2,0.5,2.4,1.1,3.7,1.6
					L398.1,177.9z M391.7,175c-1.2-0.5-2.4-1.1-3.7-1.6l1.6-3.7c1.2,0.5,2.4,1.1,3.7,1.6L391.7,175z M385.3,172.2
					c-1.2-0.5-2.5-1.1-3.7-1.6l1.6-3.7c1.2,0.5,2.5,1,3.7,1.6L385.3,172.2z M378.8,169.5c-1.2-0.5-2.5-1-3.7-1.6l1.5-3.7
					c1.2,0.5,2.5,1,3.7,1.6L378.8,169.5z M372.4,166.8c-1.2-0.5-2.5-1-3.7-1.5l1.5-3.7c1.2,0.5,2.5,1,3.7,1.5L372.4,166.8z
					 M365.9,164.1c-1.2-0.5-2.5-1-3.7-1.5l1.5-3.7c1.2,0.5,2.5,1,3.7,1.5L365.9,164.1z M359.4,161.5c-1.2-0.5-2.5-1-3.7-1.5l1.5-3.7
					c1.2,0.5,2.5,1,3.7,1.5L359.4,161.5z M352.9,158.9c-1.2-0.5-2.5-1-3.7-1.5l1.5-3.7c1.2,0.5,2.5,1,3.7,1.5L352.9,158.9z
					 M346.4,156.4c-1.2-0.5-2.5-1-3.7-1.4l1.4-3.7c1.2,0.5,2.5,1,3.7,1.4L346.4,156.4z M339.9,153.9c-1.2-0.5-2.5-0.9-3.7-1.4
					l1.4-3.7c1.2,0.5,2.5,0.9,3.8,1.4L339.9,153.9z M333.4,151.4c-1.3-0.5-2.5-0.9-3.7-1.4l1.4-3.8c1.2,0.5,2.5,0.9,3.8,1.4
					L333.4,151.4z M326.8,149c-1.3-0.5-2.5-0.9-3.8-1.4l1.4-3.8c1.3,0.5,2.5,0.9,3.8,1.4L326.8,149z M320.2,146.7
					c-1.3-0.4-2.5-0.9-3.8-1.3l1.3-3.8c1.3,0.4,2.5,0.9,3.8,1.3L320.2,146.7z M313.6,144.3c-1.3-0.4-2.5-0.9-3.8-1.3l1.3-3.8
					c1.3,0.4,2.5,0.9,3.8,1.3L313.6,144.3z M307,142.1c-1.3-0.4-2.5-0.9-3.8-1.3l1.3-3.8c1.3,0.4,2.5,0.9,3.8,1.3L307,142.1z
					 M300.4,139.8c-1.3-0.4-2.5-0.8-3.8-1.3l1.2-3.8c1.3,0.4,2.5,0.8,3.8,1.3L300.4,139.8z M293.8,137.7c-1.3-0.4-2.5-0.8-3.8-1.2
					l1.2-3.8c1.3,0.4,2.5,0.8,3.8,1.2L293.8,137.7z M287.1,135.5c-1.3-0.4-2.5-0.8-3.8-1.2l1.2-3.8c1.3,0.4,2.5,0.8,3.8,1.2
					L287.1,135.5z M280.4,133.4c-1.3-0.4-2.6-0.8-3.8-1.2l1.2-3.8c1.3,0.4,2.6,0.8,3.8,1.2L280.4,133.4z M273.7,131.4
					c-1.3-0.4-2.6-0.8-3.8-1.1l1.1-3.8c1.3,0.4,2.6,0.8,3.8,1.1L273.7,131.4z M267,129.4c-1.3-0.4-2.6-0.7-3.8-1.1l1.1-3.8
					c1.3,0.4,2.6,0.7,3.9,1.1L267,129.4z M260.3,127.5c-1.3-0.4-2.6-0.7-3.8-1.1l1.1-3.9c1.3,0.4,2.6,0.7,3.9,1.1L260.3,127.5z
					 M253.6,125.6c-1.3-0.4-2.6-0.7-3.9-1l1-3.9c1.3,0.3,2.6,0.7,3.9,1.1L253.6,125.6z M246.9,123.8c-1.3-0.3-2.6-0.7-3.9-1l1-3.9
					c1.3,0.3,2.6,0.7,3.9,1L246.9,123.8z M240.1,122c-1.3-0.3-2.6-0.7-3.9-1l1-3.9c1.3,0.3,2.6,0.7,3.9,1L240.1,122z M233.3,120.3
					c-1.3-0.3-2.6-0.6-3.9-0.9l0.9-3.9c1.3,0.3,2.6,0.6,3.9,1L233.3,120.3z M226.5,118.7c-1.3-0.3-2.6-0.6-3.9-0.9l0.9-3.9
					c1.3,0.3,2.6,0.6,3.9,0.9L226.5,118.7z M219.7,117.1c-1.3-0.3-2.6-0.6-3.9-0.9l0.9-3.9c1.3,0.3,2.6,0.6,3.9,0.9L219.7,117.1z
					 M212.9,115.6c-1.3-0.3-2.6-0.6-3.9-0.8l0.8-3.9c1.3,0.3,2.6,0.6,3.9,0.9L212.9,115.6z M206.1,114.1c-1.3-0.3-2.6-0.5-3.9-0.8
					l0.8-3.9c1.3,0.3,2.6,0.5,3.9,0.8L206.1,114.1z M199.2,112.7c-1.3-0.3-2.6-0.5-3.9-0.8l0.8-3.9c1.3,0.3,2.6,0.5,3.9,0.8
					L199.2,112.7z M192.4,111.4c-1.3-0.3-2.6-0.5-3.9-0.7l0.7-3.9c1.3,0.2,2.6,0.5,3.9,0.7L192.4,111.4z M185.5,110.1
					c-1.3-0.2-2.6-0.5-3.9-0.7l0.7-3.9c1.3,0.2,2.6,0.5,4,0.7L185.5,110.1z M178.6,108.9c-1.3-0.2-2.6-0.4-3.9-0.7l0.6-3.9
					c1.3,0.2,2.6,0.4,4,0.7L178.6,108.9z M171.8,107.7c-1.3-0.2-2.6-0.4-3.9-0.6l0.6-4c1.3,0.2,2.6,0.4,4,0.6L171.8,107.7z
					 M164.9,106.7c-1.3-0.2-2.6-0.4-3.9-0.6l0.6-4c1.3,0.2,2.6,0.4,4,0.6L164.9,106.7z M157.9,105.7c-1.3-0.2-2.6-0.4-4-0.5l0.5-4
					c1.3,0.2,2.6,0.4,4,0.5L157.9,105.7z M151,104.8c-1.3-0.2-2.7-0.3-4-0.5l0.5-4c1.3,0.2,2.6,0.3,4,0.5L151,104.8z M144.1,103.9
					c-1.3-0.2-2.7-0.3-4-0.4l0.4-4c1.3,0.1,2.6,0.3,4,0.4L144.1,103.9z M137.2,103.2c-1.3-0.1-2.7-0.3-4-0.4l0.4-4
					c1.3,0.1,2.6,0.3,4,0.4L137.2,103.2z M130.2,102.5c-1.3-0.1-2.7-0.2-4-0.3l0.3-4c1.3,0.1,2.7,0.2,4,0.3L130.2,102.5z
					 M123.3,101.9c-1.3-0.1-2.7-0.2-4-0.3l0.3-4c1.3,0.1,2.7,0.2,4,0.3L123.3,101.9z M56.7,101.8l-0.4-4c1.1-0.1,2.5-0.3,4-0.4
					l0.3,4C59.1,101.6,57.8,101.7,56.7,101.8z M116.3,101.4c-1.3-0.1-2.7-0.2-4-0.2l0.2-4c1.3,0.1,2.7,0.2,4,0.2L116.3,101.4z
					 M63.6,101.2l-0.3-4c1.2-0.1,2.6-0.2,4-0.3l0.2,4C66.1,101,64.8,101.1,63.6,101.2z M109.3,101c-1.4-0.1-2.7-0.1-4-0.2l0.2-4
					c1.3,0.1,2.7,0.1,4,0.2L109.3,101z M70.5,100.8l-0.2-4c1.3-0.1,2.6-0.1,4-0.2l0.1,4C73.1,100.7,71.8,100.7,70.5,100.8z
					 M102.4,100.7c-1.4,0-2.7-0.1-4-0.1l0.1-4c1.3,0,2.7,0.1,4,0.1L102.4,100.7z M77.5,100.6l-0.1-4c1.3,0,2.6-0.1,4-0.1l0.1,4
					C80.1,100.5,78.8,100.5,77.5,100.6z M95.4,100.5c-1.4,0-2.7,0-4-0.1l0-4c1.3,0,2.6,0,4,0.1L95.4,100.5z M84.4,100.4l0-4
					c0.9,0,1.8,0,2.7,0l1.4,0l0,4l-1.4,0C86.2,100.4,85.3,100.4,84.4,100.4z"/>
			</g>
		</g>
		<g id="holes">
			<path class="st1" d="M617.3,342.2c-1.1-0.7-2.3-1.4-3.4-2.1l2.1-3.4c1.1,0.7,2.3,1.4,3.4,2.1L617.3,342.2z M611.4,338.5
				c-1.1-0.7-2.3-1.4-3.4-2.1l2.1-3.4c1.1,0.7,2.3,1.4,3.4,2.1L611.4,338.5z M605.4,334.9l-3.4-2.1l2.1-3.4l3.4,2.1L605.4,334.9z
				 M599.5,331.2c-1.1-0.7-2.3-1.4-3.4-2.1l2.1-3.4c1.1,0.7,2.3,1.4,3.4,2.1L599.5,331.2z M593.5,327.6l-3.4-2.1l2.1-3.4l3.4,2.1
				L593.5,327.6z M587.5,324l-3.4-2.1l2.1-3.4l3.4,2.1L587.5,324z M581.5,320.4l-3.4-2l2-3.4l3.4,2L581.5,320.4z M575.5,316.8
				l-3.4-2l2-3.4l3.4,2L575.5,316.8z M569.5,313.2l-3.4-2l2-3.4l3.4,2L569.5,313.2z M563.5,309.7l-3.4-2l2-3.5l3.5,2L563.5,309.7z
				 M557.5,306.2l-3.5-2l2-3.5l3.5,2L557.5,306.2z M551.4,302.7l-3.5-2l2-3.5l3.5,2L551.4,302.7z M545.3,299.2l-3.5-2l2-3.5l3.5,2
				L545.3,299.2z M539.3,295.8l-3.5-2l2-3.5l3.5,2L539.3,295.8z M533.2,292.3l-3.5-2l2-3.5l3.5,2L533.2,292.3z M527.1,288.9
				c-1.2-0.7-2.3-1.3-3.5-1.9l1.9-3.5c1.2,0.6,2.3,1.3,3.5,1.9L527.1,288.9z M521,285.5l-3.5-1.9l1.9-3.5l3.5,1.9L521,285.5z
				 M514.9,282.1l-3.5-1.9l1.9-3.5l3.5,1.9L514.9,282.1z M508.7,278.8c-1.2-0.6-2.3-1.3-3.5-1.9l1.9-3.5c1.2,0.6,2.3,1.3,3.5,1.9
				L508.7,278.8z M502.6,275.5l-3.5-1.9l1.9-3.5l3.5,1.9L502.6,275.5z M496.4,272.2l-3.5-1.9l1.9-3.5l3.5,1.9L496.4,272.2z
				 M490.3,268.9c-1.2-0.6-2.4-1.2-3.5-1.9l1.9-3.5c1.2,0.6,2.4,1.2,3.5,1.9L490.3,268.9z M484.1,265.6l-3.5-1.8l1.8-3.5l3.5,1.9
				L484.1,265.6z M477.9,262.4l-3.5-1.8l1.8-3.6l3.6,1.8L477.9,262.4z M471.7,259.2l-3.6-1.8l1.8-3.6l3.6,1.8L471.7,259.2z
				 M465.5,256c-1.2-0.6-2.4-1.2-3.6-1.8l1.8-3.6c1.2,0.6,2.4,1.2,3.6,1.8L465.5,256z M459.2,252.9l-3.6-1.8l1.8-3.6l3.6,1.8
				L459.2,252.9z M453,249.7c-1.2-0.6-2.4-1.2-3.6-1.8l1.8-3.6c1.2,0.6,2.4,1.2,3.6,1.8L453,249.7z M446.7,246.6l-3.6-1.8l1.8-3.6
				l3.6,1.8L446.7,246.6z M440.5,243.6l-3.6-1.7l1.7-3.6l3.6,1.7L440.5,243.6z M434.2,240.5l-3.6-1.7l1.7-3.6l3.6,1.7L434.2,240.5z
				 M427.9,237.5l-3.6-1.7l1.7-3.6l3.6,1.7L427.9,237.5z M421.6,234.5l-3.6-1.7l1.7-3.6l3.6,1.7L421.6,234.5z M415.2,231.6
				c-1.2-0.6-2.4-1.1-3.6-1.7l1.7-3.6c1.2,0.6,2.4,1.1,3.6,1.7L415.2,231.6z M408.9,228.7c-1.2-0.6-2.4-1.1-3.6-1.7l1.7-3.6
				c1.2,0.6,2.4,1.1,3.6,1.7L408.9,228.7z M402.5,225.8c-1.2-0.5-2.4-1.1-3.6-1.6l1.6-3.6c1.2,0.5,2.4,1.1,3.6,1.6L402.5,225.8z
				 M396.2,222.9c-1.2-0.5-2.4-1.1-3.6-1.6l1.6-3.7c1.2,0.5,2.4,1.1,3.7,1.6L396.2,222.9z M389.8,220.1c-1.2-0.5-2.4-1.1-3.7-1.6
				l1.6-3.7c1.2,0.5,2.4,1.1,3.7,1.6L389.8,220.1z M383.4,217.3c-1.2-0.5-2.4-1.1-3.7-1.6l1.6-3.7c1.2,0.5,2.4,1.1,3.7,1.6
				L383.4,217.3z M377,214.5c-1.2-0.5-2.5-1-3.7-1.6l1.6-3.7c1.2,0.5,2.5,1,3.7,1.6L377,214.5z M370.5,211.8c-1.2-0.5-2.5-1-3.7-1.5
				l1.5-3.7c1.2,0.5,2.5,1,3.7,1.5L370.5,211.8z M364.1,209.1c-1.2-0.5-2.5-1-3.7-1.5l1.5-3.7c1.2,0.5,2.5,1,3.7,1.5L364.1,209.1z
				 M357.6,206.4c-1.2-0.5-2.5-1-3.7-1.5l1.5-3.7c1.2,0.5,2.5,1,3.7,1.5L357.6,206.4z M351.2,203.8c-1.2-0.5-2.5-1-3.7-1.5l1.5-3.7
				c1.2,0.5,2.5,1,3.7,1.5L351.2,203.8z M344.7,201.2c-1.2-0.5-2.5-1-3.7-1.5l1.5-3.7c1.2,0.5,2.5,1,3.7,1.5L344.7,201.2z
				 M338.2,198.7c-1.2-0.5-2.5-1-3.7-1.4l1.4-3.7c1.2,0.5,2.5,1,3.7,1.4L338.2,198.7z M331.7,196.2c-1.2-0.5-2.5-0.9-3.7-1.4
				l1.4-3.7c1.2,0.5,2.5,0.9,3.7,1.4L331.7,196.2z M325.1,193.7c-1.3-0.5-2.5-0.9-3.7-1.4l1.4-3.8c1.2,0.5,2.5,0.9,3.8,1.4
				L325.1,193.7z M318.6,191.3c-1.3-0.5-2.5-0.9-3.7-1.4l1.4-3.8c1.2,0.5,2.5,0.9,3.8,1.4L318.6,191.3z M312,188.9
				c-1.3-0.5-2.5-0.9-3.8-1.3l1.3-3.8c1.3,0.4,2.5,0.9,3.8,1.3L312,188.9z M305.4,186.6c-1.3-0.4-2.5-0.9-3.8-1.3l1.3-3.8
				c1.3,0.4,2.5,0.9,3.8,1.3L305.4,186.6z M298.8,184.3c-1.3-0.4-2.5-0.9-3.8-1.3l1.3-3.8c1.3,0.4,2.5,0.9,3.8,1.3L298.8,184.3z
				 M292.2,182.1c-1.3-0.4-2.5-0.8-3.8-1.3l1.3-3.8c1.3,0.4,2.5,0.8,3.8,1.3L292.2,182.1z M285.6,179.9c-1.3-0.4-2.5-0.8-3.8-1.2
				l1.2-3.8c1.3,0.4,2.5,0.8,3.8,1.2L285.6,179.9z M279,177.7c-1.3-0.4-2.5-0.8-3.8-1.2l1.2-3.8c1.3,0.4,2.5,0.8,3.8,1.2L279,177.7z
				 M272.3,175.6c-1.3-0.4-2.5-0.8-3.8-1.2l1.2-3.8c1.3,0.4,2.5,0.8,3.8,1.2L272.3,175.6z M265.6,173.6c-1.3-0.4-2.6-0.8-3.8-1.1
				l1.1-3.8c1.3,0.4,2.6,0.8,3.8,1.1L265.6,173.6z M259,171.6c-1.3-0.4-2.6-0.7-3.8-1.1l1.1-3.8c1.3,0.4,2.6,0.7,3.8,1.1L259,171.6z
				 M252.3,169.7c-1.3-0.4-2.6-0.7-3.8-1.1l1.1-3.9c1.3,0.4,2.6,0.7,3.9,1.1L252.3,169.7z M245.5,167.8c-1.3-0.4-2.6-0.7-3.8-1
				l1-3.9c1.3,0.3,2.6,0.7,3.9,1L245.5,167.8z M238.8,166c-1.3-0.3-2.6-0.7-3.9-1l1-3.9c1.3,0.3,2.6,0.7,3.9,1L238.8,166z
				 M232,164.3c-1.3-0.3-2.6-0.7-3.9-1l1-3.9c1.3,0.3,2.6,0.6,3.9,1L232,164.3z M225.3,162.6c-1.3-0.3-2.6-0.6-3.9-0.9l0.9-3.9
				c1.3,0.3,2.6,0.6,3.9,0.9L225.3,162.6z M218.5,160.9c-1.3-0.3-2.6-0.6-3.9-0.9l0.9-3.9c1.3,0.3,2.6,0.6,3.9,0.9L218.5,160.9z
				 M211.7,159.4c-1.3-0.3-2.6-0.6-3.9-0.9l0.9-3.9c1.3,0.3,2.6,0.6,3.9,0.9L211.7,159.4z M204.9,157.9c-1.3-0.3-2.6-0.6-3.9-0.8
				l0.8-3.9c1.3,0.3,2.6,0.5,3.9,0.8L204.9,157.9z M198.1,156.5c-1.3-0.3-2.6-0.5-3.9-0.8l0.8-3.9c1.3,0.3,2.6,0.5,3.9,0.8
				L198.1,156.5z M191.2,155.1c-1.3-0.2-2.6-0.5-3.9-0.7l0.7-3.9c1.3,0.2,2.6,0.5,3.9,0.7L191.2,155.1z M184.4,153.9
				c-1.3-0.2-2.6-0.5-3.9-0.7l0.7-3.9c1.3,0.2,2.6,0.5,4,0.7L184.4,153.9z M177.5,152.7c-1.3-0.2-2.6-0.4-3.9-0.6l0.6-4
				c1.3,0.2,2.6,0.4,4,0.6L177.5,152.7z M170.6,151.6c-1.3-0.2-2.6-0.4-3.9-0.6l0.6-4c1.3,0.2,2.6,0.4,4,0.6L170.6,151.6z
				 M56.2,151.2l-1-3.9c1.2-0.3,2.6-0.6,4-0.9l0.8,3.9C58.7,150.6,57.4,150.9,56.2,151.2z M163.7,150.6c-1.3-0.2-2.6-0.4-3.9-0.5
				l0.5-4c1.3,0.2,2.6,0.4,4,0.5L163.7,150.6z M62.9,149.7l-0.7-3.9c1.2-0.2,2.6-0.5,4-0.7l0.6,3.9
				C65.4,149.3,64.1,149.5,62.9,149.7z M156.8,149.7c-1.3-0.2-2.6-0.3-4-0.5l0.5-4c1.3,0.2,2.6,0.3,4,0.5L156.8,149.7z M149.9,148.8
				c-1.3-0.1-2.7-0.3-4-0.4l0.4-4c1.3,0.1,2.6,0.3,4,0.4L149.9,148.8z M69.7,148.6l-0.6-4c1.3-0.2,2.6-0.4,4-0.5l0.5,4
				C72.3,148.2,71,148.4,69.7,148.6z M143,148.1c-1.3-0.1-2.7-0.2-4-0.4l0.3-4c1.3,0.1,2.6,0.2,4,0.4L143,148.1z M76.6,147.7l-0.4-4
				c1.3-0.1,2.6-0.3,4-0.4l0.4,4C79.2,147.5,77.8,147.6,76.6,147.7z M136.1,147.5c-1.3-0.1-2.7-0.2-4-0.3l0.3-4
				c1.3,0.1,2.7,0.2,4,0.3L136.1,147.5z M83.5,147.1l-0.3-4c1.3-0.1,2.6-0.2,4-0.3l0.3,4C86.1,146.9,84.8,147,83.5,147.1z
				 M129.1,147c-1.3-0.1-2.7-0.2-4-0.2l0.2-4c1.3,0.1,2.7,0.1,4,0.2L129.1,147z M122.2,146.6c-1.3-0.1-2.7-0.1-4-0.2l0.1-4
				c1.3,0,2.7,0.1,4,0.2L122.2,146.6z M90.4,146.6l-0.2-4c1.3-0.1,2.6-0.1,4-0.2l0.1,4C93,146.5,91.7,146.6,90.4,146.6z
				 M115.2,146.4c-1.3,0-2.7-0.1-4-0.1l0.1-4c1.3,0,2.7,0,4,0.1L115.2,146.4z M97.3,146.4l-0.1-4c1.3,0,2.7-0.1,4-0.1l0.1,4
				C100,146.3,98.6,146.3,97.3,146.4z M108.3,146.3c-0.8,0-1.7,0-2.5,0l-1.5,0l0-4l1.5,0c0.8,0,1.7,0,2.5,0L108.3,146.3z"/>
		</g>
		<g id="Eclipse">
			<g id="moon">
				<g>
					<circle class="st10" cx="75.3" cy="122" r="14.5"/>
					<circle class="st11" cx="75.3" cy="122" r="13.2"/>
				</g>
			</g>
			<g>
				<circle class="st10" cx="130.7" cy="123.3" r="14.5"/>
				<circle class="st11" cx="130.7" cy="123.3" r="13.2"/>
			</g>
			<g>
				<circle class="st10" cx="189" cy="130.2" r="14.5"/>
				<circle class="st11" cx="189" cy="130.2" r="13.2"/>
			</g>
			<g>
				<circle class="st10" cx="247.5" cy="144.1" r="14.5"/>
				<circle class="st11" cx="247.5" cy="144.1" r="13.2"/>
			</g>
			<g>
				<circle class="st10" cx="307.3" cy="162.3" r="14.5"/>
				<circle class="st11" cx="307.3" cy="162.3" r="13.2"/>
			</g>
			<g>
				<circle class="st10" cx="366.2" cy="184.8" r="13.9"/>
				<circle class="st11" cx="366.2" cy="184.8" r="12.7"/>
			</g>
			<g>
				<circle class="st10" cx="425.3" cy="211.1" r="13.5"/>
				<circle class="st11" cx="425.3" cy="211.1" r="12.3"/>
			</g>
		</g>
	</g>
</g>
<g id="How_You_Can_Participate">
</g>
<g id="Will_you_be_under_the_path_of_totality_for_the_August_21_x2C__2017_1_">
</g>
</svg>
