<?xml version="1.0" encoding="UTF-8"?>
<svg width="85px" height="27px" viewBox="0 0 85 27" version="1.1" xmlns="http://www.w3.org/2000/svg" xmlns:xlink="http://www.w3.org/1999/xlink">
    <!-- Generator: Sketch 45.2 (43514) - http://www.bohemiancoding.com/sketch -->
    <title>Berkeley_wordmark_black_no_uc</title>
    <desc>Created with Sketch.</desc>
    <defs>
        <polygon id="path-1" points="21.7630791 9.3313613 21.7630791 18.5103811 0.0294095663 18.5103811 0.0294095663 0.152341554 21.7630791 0.152341554"></polygon>
    </defs>
    <g id="Profile" stroke="none" stroke-width="1" fill="none" fill-rule="evenodd">
        <g id="09_Profile_after" transform="translate(-981.000000, -674.000000)">
            <g id="Group-9" transform="translate(374.000000, 674.000000)">
                <g id="Berkeley_wordmark_black_no_uc" transform="translate(607.000000, 0.000000)">
                    <path d="M7.99940204,19.2567958 C6.70214607,19.2567958 5.4048901,18.9479954 4.04587404,18.9479954 C2.74861807,18.9479954 2.06925709,19.0715156 1.08109566,19.0715156 C0.772001116,19.0715156 0.555840804,19.0403414 0.555840804,18.7318351 C0.555840804,18.4227405 0.741121072,18.3609805 1.42048205,18.3609805 C2.81037816,18.3609805 2.87243234,18.2995145 2.87243234,17.8363138 L2.87243234,3.6282582 C2.87243234,1.18844058 2.37776344,0.910520174 1.51341628,0.910520174 C0.123226083,0.910520174 0,0.879346033 0,0.508785498 C0,0.292625185 0.0923460383,0.26174514 0.617306797,0.26174514 C1.57517637,0.26174514 2.53245776,0.292625185 3.61355342,0.292625185 C4.26203435,0.292625185 5.74486469,0.107344917 8.5243628,0.107344917 C12.539945,0.107344917 14.2695216,2.176602 14.2695216,4.36937927 C14.2695216,6.56245063 12.9413856,7.64354629 11.95293,8.32290727 C11.3659151,8.72464195 10.68626,9.06432244 10.68626,9.15696257 C10.68626,9.21872266 11.273275,9.37312289 11.89117,9.68192333 C13.3425321,10.4233385 15.165337,11.4735541 15.165337,14.1607062 C15.165337,17.6198594 12.2929046,19.2567958 7.99940204,19.2567958 M7.59766737,0.848465989 C5.55929032,0.848465989 5.46694429,1.12638639 5.46694429,1.74398728 L5.46694429,8.44672155 C5.46694429,8.94080226 5.86809077,8.87904217 6.60950594,8.87904217 C8.49348276,8.87904217 9.79073873,9.06432244 9.79073873,9.06432244 C10.68626,8.38496146 11.7058897,7.79794651 11.7058897,5.35812889 C11.7058897,3.81383256 10.4086337,0.848465989 7.59766737,0.848465989 M6.57891999,9.46546892 C5.71398464,9.46546892 5.46694429,9.5892832 5.46694429,10.2689383 L5.46694429,15.7973486 C5.46694429,16.0758571 5.55929032,17.8048456 5.83721073,18.1142342 C6.17718531,18.4847947 7.16534674,18.700955 8.15409636,18.700955 C10.5009798,18.700955 12.2308504,17.0946045 12.2308504,14.4077465 C12.2308504,11.6276602 9.94543305,9.46546892 6.57891999,9.46546892" id="Fill-1" fill="#0A0B09"></path>
                    <path d="M25.0113657,11.5867809 C24.3128885,11.7482395 21.6263246,12.3393717 18.5644947,12.5272989 C18.1339386,12.5543557 18.0533564,12.6884633 18.0533564,13.3063583 C18.0533564,17.0140223 20.9278474,18.0074775 22.9700477,18.0074775 C24.7428563,18.0074775 25.710137,17.3628198 25.8713014,17.3628198 C26.0057031,17.3628198 26.0862853,17.5239842 26.0862853,17.5780978 C26.0862853,17.7119113 23.8029266,19.4044319 21.6263246,19.4044319 C19.4238422,19.4044319 16.146146,18.3298063 16.146146,13.8436711 C16.146146,10.0557189 18.6986023,7.7988288 21.1428313,7.7988288 C22.5400798,7.7988288 24.2593631,8.68582132 25.2263496,9.81397229 C25.6833743,10.3512851 26.113048,10.9959428 26.113048,11.2106326 C26.113048,11.3182716 25.7371938,11.4256165 25.0113657,11.5867809 M20.8746161,8.36349247 C18.8327099,8.36349247 18.1877581,11.4256165 18.1877581,11.802059 C18.1877581,11.9364607 18.1877581,11.9632234 18.5103811,11.9632234 C19.9073355,11.9632234 21.3578153,11.6135436 23.3726647,11.2912148 C23.6685249,11.2376894 23.6952876,11.1838699 23.6952876,11.0227055 C23.6952876,10.3512851 22.1104061,8.36349247 20.8746161,8.36349247" id="Fill-2" fill="#0A0B09"></path>
                    <path d="M34.8441601,10.861541 C34.4680117,10.861541 34.1456829,9.76015278 32.8022539,9.76015278 C31.2441351,9.76015278 30.6532969,10.4048105 30.6532969,11.5329614 L30.6532969,17.0672536 C30.6532969,18.3836258 30.733585,18.3836258 32.7216717,18.3836258 C33.4201489,18.3836258 33.4466175,18.464208 33.4466175,18.7059547 C33.4466175,19.0018149 33.4201489,18.9750522 32.7216717,18.9750522 C32.3452292,18.9750522 30.5456579,18.8403564 29.6857222,18.8403564 C28.7725551,18.8403564 27.8593881,18.9750522 27.4832397,18.9750522 C26.8650507,18.9750522 26.8112311,18.9750522 26.8112311,18.7059547 C26.8112311,18.4371512 26.8379939,18.3836258 27.4832397,18.3836258 C28.5843339,18.3836258 28.6649161,18.3568631 28.6649161,17.9807148 L28.6649161,10.6197944 C28.6649161,8.79287214 28.7184415,8.73964083 27.2147304,8.73964083 C26.7306489,8.73964083 26.7306489,8.76640353 26.7306489,8.47083739 C26.7306489,8.14821445 26.7035921,8.06763224 27.1609109,8.06763224 C28.0740779,8.06763224 28.5843339,8.12115765 29.1219408,8.12115765 C29.5513204,8.12115765 30.0615764,7.98705002 30.4921325,7.98705002 C30.5994774,7.98705002 30.7071164,8.06763224 30.7071164,8.28291026 C30.7071164,8.41731198 30.6532969,9.00815017 30.6532969,9.08873238 C30.6532969,9.33047902 30.6797655,9.51840614 30.7874045,9.51840614 C31.1906097,9.51840614 32.4531624,8.12115765 33.7154209,8.12115765 C34.1995024,8.12115765 35.4347042,8.71258403 35.4347042,9.41106123 C35.4347042,9.67957057 35.0050304,10.861541 34.8441601,10.861541" id="Fill-3" fill="#0A0B09"></path>
                    <path d="M47.5511514,19.0823971 C47.2288226,19.0823971 46.879731,19.0556344 46.6379844,19.0556344 C46.3156555,19.0556344 45.5095393,19.0823971 45.1339792,19.0823971 C44.6496036,19.0823971 44.407857,18.4103885 43.279706,17.1210731 C42.151555,15.8317577 41.0225218,14.1389431 40.8613574,14.1389431 C40.7540125,14.1389431 40.3778641,14.4077465 39.9211335,14.7030186 C39.4914598,14.971822 39.1153114,15.1603373 39.1153114,15.402084 L39.1153114,17.0943104 C39.1153114,18.356569 39.0614919,18.356569 40.7269557,18.356569 C41.3448506,18.356569 41.4521956,18.4909707 41.4521956,18.7059547 C41.4521956,18.9750522 41.3180879,18.9750522 40.7269557,18.9750522 C40.3240446,18.9750522 39.0885487,18.9212327 38.2289071,18.9212327 C37.3151519,18.9212327 36.3214026,18.9750522 35.9452543,18.9750522 C35.3273593,18.9750522 35.1661948,18.9479954 35.1661948,18.7059547 C35.1661948,18.4909707 35.3005966,18.356569 35.9452543,18.356569 C36.8584213,18.356569 37.100462,18.356569 37.100462,17.953658 C37.100462,17.1745985 37.1810442,9.22284 37.1810442,3.55444019 C37.1810442,1.64722981 36.9660603,1.40548318 36.2408204,1.40548318 C35.1394321,1.40548318 35.0320872,1.32490096 35.0320872,1.13638564 C35.0320872,0.867876303 35.0856126,0.76023729 35.3811788,0.76023729 C37.3151519,0.76023729 38.9003275,0.169399102 39.1420741,0.169399102 C39.2764758,0.169399102 39.3302953,0.249981314 39.3302953,0.411145737 C39.3302953,0.76023729 39.2764758,1.88897645 39.2764758,2.74861807 C39.2764758,6.83184226 39.1153114,9.84073499 39.1153114,14.2195253 C39.1153114,14.3271643 39.1420741,14.4077465 39.2229504,14.4077465 C39.8943708,14.4077465 42.6888678,11.9364607 43.5485094,11.1300504 C44.5963723,10.1363011 44.8378248,9.67957057 44.8378248,9.11549509 C44.8378248,8.68582132 44.7572426,8.63200181 43.5752721,8.63200181 C43.1723611,8.63200181 43.0379594,8.57818231 43.0379594,8.33643567 C43.0379594,8.12115765 43.1723611,8.06733814 43.5214526,8.06733814 C43.7896679,8.06733814 44.3005121,8.14792035 44.6228409,8.14792035 C44.9719325,8.14792035 46.5303454,8.06733814 46.8526742,8.06733814 C47.0676582,8.06733814 47.1750031,8.09439494 47.1750031,8.17497715 C47.1750031,8.41701788 46.2621301,9.57222565 45.4292512,10.3780478 C44.0855281,11.6947141 42.4200644,12.8763904 42.4200644,13.0646117 C42.4200644,13.3063583 42.9035577,13.8166143 44.7840053,16.0735044 C45.6980546,17.1745985 46.5574022,18.4909707 47.4705692,18.4909707 C48.1152269,18.4909707 48.3302108,18.6256666 48.3302108,18.8403564 C48.3302108,19.0282835 48.1419896,19.0823971 47.5511514,19.0823971" id="Fill-4" fill="#0A0B09"></path>
                    <path d="M56.3366712,11.5867809 C55.6378999,11.7482395 52.9516301,12.3393717 49.8892119,12.5272989 C49.4592441,12.5543557 49.3786619,12.6884633 49.3786619,13.3063583 C49.3786619,17.0140223 52.2528588,18.0074775 54.2944709,18.0074775 C56.0672795,18.0074775 57.0351484,17.3628198 57.1963128,17.3628198 C57.3304204,17.3628198 57.4110026,17.5239842 57.4110026,17.5780978 C57.4110026,17.7119113 55.1273498,19.4044319 52.9516301,19.4044319 C50.7485595,19.4044319 47.4711574,18.3298063 47.4711574,13.8436711 C47.4711574,10.0557189 50.0233196,7.7988288 52.4678427,7.7988288 C53.8647971,7.7988288 55.5840804,8.68582132 56.5516551,9.81397229 C57.0080916,10.3512851 57.4380594,10.9959428 57.4380594,11.2106326 C57.4380594,11.3182716 57.0619111,11.4256165 56.3366712,11.5867809 M52.1990393,8.36349247 C50.1577213,8.36349247 49.5130636,11.4256165 49.5130636,11.802059 C49.5130636,11.9364607 49.5130636,11.9632234 49.8353924,11.9632234 C51.2317586,11.9632234 52.6825326,11.6135436 54.697676,11.2912148 C54.9929481,11.2376894 55.0200049,11.1838699 55.0200049,11.0227055 C55.0200049,10.3512851 53.4351234,8.36349247 52.1990393,8.36349247" id="Fill-5" fill="#0A0B09"></path>
                    <path d="M62.2518172,18.9750522 C61.8486121,18.9750522 61.258068,18.9209386 60.7739865,18.9209386 C59.8608195,18.9209386 58.4371024,18.9750522 58.060954,18.9750522 C57.442765,18.9750522 57.3889455,18.9209386 57.3889455,18.7065429 C57.3889455,18.5183216 57.4160023,18.3568631 58.060954,18.3568631 C59.1623423,18.3568631 59.6190729,18.3836258 59.6190729,17.9001325 L59.6190729,3.09770962 C59.6190729,1.40518908 59.4579084,1.40518908 58.2494694,1.40518908 C57.765682,1.40518908 57.4965845,1.35195776 57.4965845,1.05550934 C57.4965845,0.733474584 57.7115684,0.76023729 58.1685931,0.733474584 C60.2640247,0.599366962 61.2845366,0.142342301 61.4459951,0.142342301 C61.5803969,0.142342301 61.7142104,0.276744019 61.7142104,0.572016065 C61.7142104,0.894639008 61.5803969,1.86221374 61.5803969,2.66774176 C61.5803969,12.9034472 61.4459951,15.0253474 61.4459951,15.8047009 C61.4459951,18.0342402 61.6339223,18.3298063 62.1174155,18.3298063 C63.4605504,18.3298063 63.407025,18.4906766 63.407025,18.7065429 C63.407025,18.9750522 63.2185097,18.9750522 62.2518172,18.9750522" id="Fill-6" fill="#0A0B09"></path>
                    <g id="Group-10" transform="translate(62.936472, 7.646487)">
                        <mask id="mask-2" fill="white">
                            <use xlink:href="#path-1"></use>
                        </mask>
                        <g id="Clip-8"></g>
                        <path d="M8.89551153,3.9402937 C8.19703433,4.10175222 5.51047044,4.6928845 2.44775821,4.88081163 C2.01808444,4.90786843 1.93691404,5.04197605 1.93691404,5.65987104 C1.93691404,9.36753507 4.81199324,10.3609902 6.85331124,10.3609902 C8.626414,10.3609902 9.59398873,9.71633253 9.75456496,9.71633253 C9.88896668,9.71633253 9.96954889,9.87749695 9.96954889,9.93161055 C9.96954889,10.0654241 7.68619016,11.7579446 5.51047044,11.7579446 C3.30710573,11.7579446 0.0294095663,10.6833191 0.0294095663,6.19718382 C0.0294095663,2.40923167 2.58215992,0.152341554 5.02668308,0.152341554 C6.42363748,0.152341554 8.14350892,1.03933407 9.11020136,2.16748504 C9.56693193,2.70479782 9.99660569,3.34945551 9.99660569,3.56414534 C9.99660569,3.67178436 9.62016324,3.77912927 8.89551153,3.9402937 M4.75787964,0.717005227 C2.71656164,0.717005227 2.07131576,3.77912927 2.07131576,4.15557172 C2.07131576,4.28997344 2.07131576,4.31673615 2.3936446,4.31673615 C3.7911872,4.31673615 5.24166701,3.9670564 7.2565164,3.64472756 C7.55178844,3.59120214 7.57943344,3.53738264 7.57943344,3.37621822 C7.57943344,2.70479782 5.99337552,0.717005227 4.75787964,0.717005227" id="Fill-7" fill="#0A0B09" mask="url(#mask-2)"></path>
                        <path d="M21.0646019,1.06609678 C20.4737637,1.06609678 19.2914991,4.28997344 17.1695989,9.44782318 C15.4764902,13.5578101 14.267757,15.734118 13.4084095,17.5072207 C13.1131374,18.098353 12.7905145,18.1251157 12.1993822,18.2056979 C11.3935601,18.313337 11.205633,18.5280268 10.6145007,18.5280268 C10.157476,18.5280268 9.88896668,18.3939192 9.88896668,18.2595174 C9.88896668,18.098353 11.1515194,17.9371886 12.0649805,16.7816867 C13.0322611,15.5729536 15.3423826,12.4028964 15.3423826,11.5973684 C15.3423826,11.3015082 13.1937196,6.33099734 11.7155948,2.83890544 C11.0441744,1.2272612 10.8559532,1.09285948 10.372754,1.09285948 C9.83514717,1.09285948 9.80867856,1.06609678 9.80867856,0.824350144 C9.80867856,0.582603509 9.88896668,0.447907695 10.372754,0.447907695 C11.1247567,0.447907695 11.3129779,0.501433106 11.9576356,0.501433106 C12.7093441,0.501433106 13.649862,0.420850894 14.5095036,0.420850894 C15.0735791,0.420850894 15.1812181,0.528489907 15.1812181,0.824350144 C15.1812181,1.06609678 15.0735791,1.09285948 14.5095036,1.09285948 C13.86514,1.09285948 13.7036815,1.25402391 13.7036815,1.8719189 C13.7036815,2.65097831 14.4021587,3.59120214 16.0140971,7.72853994 C16.2293751,8.29261542 16.5517039,8.74934598 16.6590488,8.74934598 C16.846976,8.74934598 17.0081404,8.37319763 17.4378142,7.11035085 C18.0824719,5.17637777 19.0497525,2.38217487 19.0497525,2.00632062 C19.0497525,1.2004985 19.0497525,1.03933407 18.1362914,1.03933407 C17.3040006,1.03933407 17.1960675,1.03933407 17.1960675,0.770530638 C17.1960675,0.420850894 17.2766497,0.420850894 17.760143,0.420850894 C18.485677,0.420850894 18.9688762,0.474670401 19.6947043,0.474670401 C20.0979094,0.474670401 20.8228553,0.367325484 21.1990036,0.367325484 C21.6286774,0.367325484 21.7630791,0.394088189 21.7630791,0.689948426 C21.7630791,0.931695061 21.3869307,1.06609678 21.0646019,1.06609678" id="Fill-9" fill="#0A0B09" mask="url(#mask-2)"></path>
                    </g>
                </g>
            </g>
        </g>
    </g>
</svg>