<?xml version="1.0" encoding="utf-8"?>
<!-- Generator: Adobe Illustrator 21.0.2, SVG Export Plug-In . SVG Version: 6.00 Build 0)  -->
<svg version="1.1" id="Layer_1" xmlns="http://www.w3.org/2000/svg" xmlns:xlink="http://www.w3.org/1999/xlink" x="0px" y="0px"
	 viewBox="0 0 320.2 68.6" style="enable-background:new 0 0 320.2 68.6;" xml:space="preserve">
<style type="text/css">
	.st0{enable-background:new    ;}
	.st1{fill:#010101;}
	.st2{fill:#5D5D5D;}
	.st3{fill:#4B4B4B;}
</style>
<title>Asset 1</title>
<g id="Layer_2">
	<g id="Layer_1-2">
		<g class="st0">
			<path class="st1" d="M22,13.8h-3.8l-0.5-3.4c-0.5-0.5-1.1-0.9-1.9-1.2S14,8.8,13,8.8c-2.2,0-3.9,0.8-5.1,2.4S6,14.9,6,17.5v0.9
				c0,2.6,0.6,4.7,1.8,6.3s2.9,2.4,5.1,2.4c1,0,1.9-0.1,2.8-0.4s1.5-0.7,1.9-1.2l0.5-3.4H22v5.1c-1,1.2-2.3,2.1-3.9,2.9
				s-3.4,1.1-5.4,1.1c-3.4,0-6.2-1.2-8.4-3.6s-3.3-5.4-3.3-9.2v-0.9c0-3.7,1.1-6.8,3.3-9.2s5-3.6,8.5-3.6c2,0,3.8,0.4,5.4,1.1
				s2.9,1.7,4,2.9V13.8z"/>
			<path class="st1" d="M48.8,19.5h-8.7v7.3h8.3l0.2-3.1h3.9v7H32.2v-3.1l2.7-0.5V8.8l-2.7-0.5V5.2H35h17.5v7h-3.9l-0.2-3.1h-8.2
				v6.4h8.7V19.5z"/>
		</g>
		<g class="st0">
			<path class="st1" d="M74.8,5.2c2.9,0,5.2,0.7,6.8,2s2.5,3.2,2.5,5.5c0,1.3-0.3,2.4-1,3.4s-1.7,1.7-3,2.3c1.5,0.4,2.6,1.2,3.3,2.2
				s1,2.3,1,3.9v1.3c0,0.6,0.1,1,0.3,1.3s0.6,0.5,1.1,0.6l0.6,0.1v3.1h-2.7c-1.7,0-2.9-0.5-3.5-1.4s-1-2.1-1-3.5v-1.5
				c0-1.2-0.3-2.2-1-2.9s-1.6-1.1-2.8-1.1h-4.2v6.8l2.7,0.5v3.1H63.3v-3.1l2.7-0.5V8.8l-2.7-0.5V5.2H66H74.8z M71.1,16.5h3.6
				c1.4,0,2.5-0.3,3.2-0.9s1.1-1.5,1.1-2.6s-0.4-2.1-1.1-2.8s-1.8-1-3.1-1h-3.6V16.5z"/>
		</g>
		<g class="st0">
			<path class="st1" d="M117.7,5.2V12h-3.9l-0.2-2.9h-4.7v18l2.7,0.5v3.1h-10.6v-3.1l2.7-0.5v-18H99L98.8,12h-3.9V5.2H117.7z"/>
		</g>
		<g class="st0">
			<path class="st1" d="M127.3,8.3V5.2h10.6v3.1l-2.7,0.5v18.4l2.7,0.5v3.1h-10.6v-3.1l2.7-0.5V8.8L127.3,8.3z"/>
			<path class="st1" d="M147.7,27.7l2.7-0.5V8.8l-2.7-0.5V5.2h20.4v7h-3.9L164,9.2h-8.3v7h9v4h-9v7l2.7,0.5v3.1h-10.6V27.7z"/>
			<path class="st1" d="M177.9,8.3V5.2h10.6v3.1l-2.7,0.5v18.4l2.7,0.5v3.1h-10.6v-3.1l2.7-0.5V8.8L177.9,8.3z"/>
			<path class="st1" d="M219.3,13.8h-3.8l-0.5-3.4c-0.5-0.5-1.1-0.9-1.9-1.2s-1.7-0.4-2.7-0.4c-2.2,0-3.9,0.8-5.1,2.4
				s-1.8,3.7-1.8,6.3v0.9c0,2.6,0.6,4.7,1.8,6.3s2.9,2.4,5.1,2.4c1,0,1.9-0.1,2.8-0.4s1.5-0.7,1.9-1.2l0.5-3.4h3.8v5.1
				c-1,1.2-2.3,2.1-3.9,2.9s-3.4,1.1-5.4,1.1c-3.4,0-6.2-1.2-8.4-3.6s-3.3-5.4-3.3-9.2v-0.9c0-3.7,1.1-6.8,3.3-9.2s5-3.6,8.5-3.6
				c2,0,3.8,0.4,5.4,1.1s2.9,1.7,4,2.9V13.8z"/>
		</g>
		<g class="st0">
			<path class="st1" d="M229.6,27.7l1.8-0.3l7.8-22.3h5.3l7.7,22.3l1.8,0.3v3.1h-8.7v-3.1l1.8-0.3l-1.1-3.5h-8.3l-1.1,3.5l1.8,0.3
				v3.1h-8.7V27.7z M238.9,20.1h5.9l-2.9-9h-0.1L238.9,20.1z"/>
		</g>
		<g class="st0">
			<path class="st1" d="M283.6,5.2V12h-3.9l-0.2-2.9h-4.7v18l2.7,0.5v3.1h-10.6v-3.1l2.7-0.5v-18h-4.7l-0.2,2.9h-3.9V5.2H283.6z"/>
		</g>
		<g class="st0">
			<path class="st1" d="M309.8,19.5h-8.7v7.3h8.3l0.2-3.1h3.9v7h-20.2v-3.1l2.7-0.5V8.8l-2.7-0.5V5.2h2.7h17.5v7h-3.9l-0.2-3.1h-8.2
				v6.4h8.7V19.5z"/>
		</g>
		<g class="st0">
			<path class="st2" d="M87.8,60.1c0,1-0.2,1.8-0.5,2.6c-0.3,0.7-0.8,1.3-1.4,1.7s-1.3,0.6-2.1,0.6c-0.8,0-1.5-0.2-2.1-0.6
				c-0.6-0.4-1.1-0.9-1.4-1.6c-0.3-0.7-0.5-1.5-0.5-2.5v-0.7c0-1,0.2-1.8,0.5-2.5s0.8-1.3,1.4-1.7c0.6-0.4,1.3-0.6,2.1-0.6
				c0.8,0,1.5,0.2,2.1,0.6c0.6,0.4,1.1,0.9,1.4,1.7c0.3,0.7,0.5,1.6,0.5,2.6V60.1z M86.5,59.5c0-1.2-0.2-2.1-0.7-2.7
				c-0.5-0.6-1.1-0.9-2-0.9c-0.8,0-1.5,0.3-2,0.9c-0.5,0.6-0.7,1.5-0.7,2.6v0.7c0,1.1,0.2,2,0.7,2.7c0.5,0.7,1.1,1,2,1
				c0.8,0,1.5-0.3,2-0.9c0.5-0.6,0.7-1.5,0.7-2.7V59.5z"/>
		</g>
		<g class="st0">
			<path class="st2" d="M98.8,60.4h-4.2v4.4h-1.3v-10h6.2v1.1h-4.9v3.4h4.2V60.4z"/>
		</g>
		<g class="st0">
			<path class="st2" d="M112.8,60.9v3.9h-1.3v-10h3.7c1.1,0,1.9,0.3,2.6,0.8s0.9,1.3,0.9,2.2c0,1-0.3,1.7-0.9,2.2
				c-0.6,0.5-1.5,0.8-2.6,0.8H112.8z M112.8,59.8h2.4c0.7,0,1.2-0.2,1.6-0.5s0.6-0.8,0.6-1.4c0-0.6-0.2-1.1-0.6-1.4
				s-0.9-0.5-1.5-0.6h-2.4V59.8z"/>
		</g>
		<g class="st0">
			<path class="st2" d="M128.1,62.2h-4.2l-0.9,2.6h-1.4l3.8-10h1.1l3.8,10H129L128.1,62.2z M124.3,61.1h3.4l-1.7-4.7L124.3,61.1z"/>
		</g>
		<g class="st0">
			<path class="st2" d="M138.9,60.8h-2.3v4h-1.3v-10h3.3c1.1,0,2,0.3,2.6,0.8s0.9,1.3,0.9,2.2c0,0.6-0.2,1.2-0.5,1.6s-0.8,0.8-1.4,1
				l2.3,4.2v0.1H141L138.9,60.8z M136.5,59.7h2c0.7,0,1.2-0.2,1.6-0.5s0.6-0.8,0.6-1.4c0-0.6-0.2-1.1-0.6-1.4s-0.9-0.5-1.6-0.5h-2
				V59.7z"/>
		</g>
		<g class="st0">
			<path class="st2" d="M153.8,55.9h-3.2v8.9h-1.3v-8.9h-3.2v-1.1h7.7V55.9z"/>
		</g>
		<g class="st0">
			<path class="st2" d="M160.2,64.8h-1.3v-10h1.3V64.8z"/>
		</g>
		<g class="st0">
			<path class="st2" d="M173.4,61.6c-0.1,1.1-0.5,1.9-1.2,2.4c-0.7,0.6-1.5,0.9-2.6,0.9c-1.2,0-2.1-0.4-2.8-1.3
				c-0.7-0.8-1.1-2-1.1-3.4v-1c0-0.9,0.2-1.7,0.5-2.4c0.3-0.7,0.8-1.2,1.4-1.6c0.6-0.4,1.3-0.6,2.1-0.6c1.1,0,1.9,0.3,2.5,0.9
				c0.6,0.6,1,1.4,1.1,2.5h-1.3c-0.1-0.8-0.4-1.4-0.7-1.7c-0.4-0.4-0.9-0.5-1.6-0.5c-0.8,0-1.5,0.3-2,0.9c-0.5,0.6-0.7,1.5-0.7,2.6
				v1c0,1.1,0.2,1.9,0.7,2.6s1.1,1,1.9,1c0.7,0,1.3-0.2,1.7-0.5c0.4-0.3,0.6-0.9,0.8-1.7H173.4z"/>
		</g>
		<g class="st0">
			<path class="st2" d="M180.1,64.8h-1.3v-10h1.3V64.8z"/>
		</g>
		<g class="st0">
			<path class="st2" d="M187.3,60.9v3.9H186v-10h3.7c1.1,0,1.9,0.3,2.6,0.8c0.6,0.6,0.9,1.3,0.9,2.2c0,1-0.3,1.7-0.9,2.2
				c-0.6,0.5-1.5,0.8-2.6,0.8H187.3z M187.3,59.8h2.4c0.7,0,1.2-0.2,1.6-0.5c0.4-0.3,0.6-0.8,0.6-1.4c0-0.6-0.2-1.1-0.6-1.4
				c-0.4-0.4-0.9-0.5-1.5-0.6h-2.4V59.8z"/>
		</g>
		<g class="st0">
			<path class="st2" d="M202.6,62.2h-4.2l-0.9,2.6h-1.4l3.8-10h1.1l3.8,10h-1.3L202.6,62.2z M198.9,61.1h3.4l-1.7-4.7L198.9,61.1z"
				/>
		</g>
		<g class="st0">
			<path class="st2" d="M215.8,55.9h-3.2v8.9h-1.3v-8.9h-3.2v-1.1h7.7V55.9z"/>
		</g>
		<g class="st0">
			<path class="st2" d="M222.2,64.8h-1.3v-10h1.3V64.8z"/>
			<path class="st2" d="M235.7,60.1c0,1-0.2,1.8-0.5,2.6c-0.3,0.7-0.8,1.3-1.4,1.7s-1.3,0.6-2.1,0.6c-0.8,0-1.5-0.2-2.1-0.6
				c-0.6-0.4-1.1-0.9-1.4-1.6c-0.3-0.7-0.5-1.5-0.5-2.5v-0.7c0-1,0.2-1.8,0.5-2.5c0.3-0.7,0.8-1.3,1.4-1.7c0.6-0.4,1.3-0.6,2.1-0.6
				c0.8,0,1.5,0.2,2.1,0.6c0.6,0.4,1.1,0.9,1.4,1.7c0.3,0.7,0.5,1.6,0.5,2.6V60.1z M234.4,59.5c0-1.2-0.2-2.1-0.7-2.7
				c-0.5-0.6-1.1-0.9-2-0.9c-0.8,0-1.5,0.3-2,0.9c-0.5,0.6-0.7,1.5-0.7,2.6v0.7c0,1.1,0.2,2,0.7,2.7c0.5,0.7,1.1,1,2,1
				c0.8,0,1.5-0.3,2-0.9c0.5-0.6,0.7-1.5,0.7-2.7V59.5z"/>
		</g>
		<g class="st0">
			<path class="st2" d="M248.9,64.8h-1.3l-5-7.7v7.7h-1.3v-10h1.3l5,7.7v-7.7h1.3V64.8z"/>
		</g>
		<g>
			<rect x="5" y="57.8" class="st3" width="53.2" height="3"/>
		</g>
		<g>
			<rect x="267" y="58.8" class="st3" width="53.2" height="3"/>
		</g>
	</g>
</g>
</svg>
