<?xml version="1.0" encoding="UTF-8"?>
<svg width="80px" height="26px" viewBox="0 0 80 26" version="1.1" xmlns="http://www.w3.org/2000/svg" xmlns:xlink="http://www.w3.org/1999/xlink">
    <!-- Generator: Sketch 45.2 (43514) - http://www.bohemiancoding.com/sketch -->
    <title>googlelogo_dark_clr_112x36px</title>
    <desc>Created with Sketch.</desc>
    <defs></defs>
    <g id="Profile" stroke="none" stroke-width="1" fill="none" fill-rule="evenodd">
        <g id="09_Profile_after" transform="translate(-375.000000, -674.000000)">
            <g id="Group-9" transform="translate(374.000000, 674.000000)">
                <g id="googlelogo_dark_clr_112x36px">
                    <path d="M11.0625,19.875 C5.64,19.875 1.08,15.4575 1.08,10.035 C1.08,4.6125 5.6325,0.195 11.0625,0.195 C14.0625,0.195 16.2,1.3725 17.805,2.91 L15.9075,4.8075 C14.7525,3.7275 13.1925,2.8875 11.0625,2.8875 C7.1025,2.8875 4.005,6.0825 4.005,10.0425 C4.005,14.0025 7.1025,17.1975 11.0625,17.1975 C13.6275,17.1975 15.0975,16.1625 16.0275,15.2325 C16.7925,14.4675 17.3025,13.3575 17.49,11.85 L11.25,11.85 L11.25,9.15 L20.1075,9.15 C20.205,9.63 20.25,10.2075 20.25,10.83 C20.25,12.8475 19.695,15.345 17.925,17.115 C16.1925,18.915 13.9875,19.875 11.0625,19.875 Z M34.4625,13.545 C34.4625,17.19 31.6125,19.8825 28.125,19.8825 C24.63,19.8825 21.7875,17.1975 21.7875,13.545 C21.7875,9.87 24.63,7.2075 28.125,7.2075 C31.6125,7.215 34.4625,9.8775 34.4625,13.545 Z M31.6875,13.545 C31.6875,11.265 30.0375,9.705 28.125,9.705 C26.2125,9.705 24.5625,11.265 24.5625,13.545 C24.5625,15.8025 26.2125,17.385 28.125,17.385 C30.0375,17.385 31.6875,15.8025 31.6875,13.545 Z M48.7125,13.5375 C48.7125,17.1825 45.87,19.875 42.375,19.875 C38.88,19.875 36.0375,17.19 36.0375,13.5375 C36.0375,9.8625 38.88,7.2 42.375,7.2 C45.87,7.2 48.7125,9.87 48.7125,13.5375 Z M45.9375,13.5375 C45.9375,11.2575 44.2875,9.6975 42.375,9.6975 C40.4625,9.6975 38.8125,11.2575 38.8125,13.5375 C38.8125,15.795 40.4625,17.3775 42.375,17.3775 C44.2875,17.3775 45.9375,15.795 45.9375,13.5375 Z M62.25,7.59 L62.25,18.9675 C62.25,23.6475 59.49,25.5675 56.2275,25.5675 C53.1525,25.5675 51.3075,23.505 50.61,21.825 L53.0325,20.82 C53.4675,21.855 54.5175,23.0775 56.2275,23.0775 C58.3125,23.0775 59.61,21.78 59.61,19.3575 L59.61,18.4425 L59.5125,18.4425 C58.89,19.2075 57.69,19.8825 56.175,19.8825 C53.01,19.8825 50.25,17.1225 50.25,13.5675 C50.25,9.99 53.01,7.2075 56.175,7.2075 C57.69,7.2075 58.89,7.8825 59.5125,8.625 L59.61,8.625 L59.61,7.59 L62.25,7.59 Z M59.805,13.56 C59.805,11.325 58.32,9.6975 56.4225,9.6975 C54.5025,9.6975 53.04,11.3325 53.04,13.56 C53.04,15.765 54.5025,17.3775 56.4225,17.3775 C58.3125,17.3775 59.805,15.7725 59.805,13.56 Z M67.2825,0.8775 L67.2825,19.5 L64.5,19.5 L64.5,0.8775 L67.2825,0.8775 Z M78.405,15.63 L80.565,17.07 C79.8675,18.105 78.1875,19.875 75.285,19.875 C71.685,19.875 69,17.0925 69,13.5375 C69,9.7725 71.715,7.2 74.9775,7.2 C78.2625,7.2 79.875,9.8175 80.4,11.235 L80.685,11.955 L72.21,15.4575 C72.855,16.7325 73.8675,17.3775 75.285,17.3775 C76.7025,17.3775 77.685,16.68 78.405,15.63 L78.405,15.63 Z M71.76,13.35 L77.4225,10.995 C77.1075,10.2 76.1775,9.6525 75.0675,9.6525 C73.6575,9.6525 71.685,10.8975 71.76,13.35 Z" id="Shape" fill="#000000" fill-rule="nonzero"></path>
                    <polygon id="Shape" points="0 0 84 0 84 27 0 27"></polygon>
                </g>
            </g>
        </g>
    </g>
</svg>