<?xml version="1.0" encoding="utf-8"?>
<!-- Generator: Adobe Illustrator 19.0.1, SVG Export Plug-In . SVG Version: 6.00 Build 0)  -->
<svg version="1.1" id="Layer_1" xmlns="http://www.w3.org/2000/svg" xmlns:xlink="http://www.w3.org/1999/xlink" x="0px" y="0px"
	 width="36px" height="36px" viewBox="0 0 130 130" style="enable-background:new 0 0 130 130;" xml:space="preserve">
<style type="text/css">
	.st0{fill:#CFD8DC;}
	.st1{fill:#FECC81;}
	.st2{fill:#FAA629;}
	.st3{fill:#FEEA39;}
	.st4{fill:#B0BEC5;}
	.st5{fill:#EDEFF0;}
</style>
<g>
	<g>
		<polygon class="st0" points="5,17 5,5 17,5 17,1 5,1 1,1 1,5 1,17 		"/>
		<polygon class="st0" points="113,5 125,5 125,17 129,17 129,5 129,1 125,1 113,1 		"/>
		<polygon class="st0" points="125,113 125,125 113,125 113,129 125,129 129,129 129,125 129,113 		"/>
		<polygon class="st0" points="17,125 5,125 5,113 1,113 1,125 1,129 5,129 17,129 		"/>
	</g>
	<path class="st1" d="M108.5,37.1c2.2-4.1,1.7-9.2-1.7-12.8c-3.3-3.5-8.4-4.4-12.6-2.4c-2.6-1.8-5.4-3.5-8.4-4.9
		c-26.1-11.9-57-0.4-68.9,25.7c-4,8.7-5.5,18.3-4.6,27.2c-0.3-7.3,1.3-15.1,4.5-22.2c11-24.2,39.6-34.8,63.8-23.8
		c2.8,1.3,5.4,2.8,7.8,4.5c-1.2,3.7-0.4,7.9,2.5,10.9c2.8,3,6.9,4.1,10.7,3.1c8.1,13.2,9.7,30.1,2.8,45.2
		c-8.8,19.3-29,30.4-49.1,28.2c22.7,3.9,46.3-8.1,56.3-30.1C118.9,69.6,117.2,51.4,108.5,37.1z"/>
	<path class="st2" d="M108.1,38c2.2-4.1,1.7-9.2-1.7-12.8c-3.3-3.5-8.4-4.4-12.6-2.4c-2.6-1.8-5.4-3.5-8.4-4.9
		c-26.1-11.9-57-0.4-68.9,25.7c-4,8.7-5.1,17.5-4.2,26.4c-0.3-7.3,0.9-14.2,4.1-21.3c11-24.2,39.6-34.8,63.8-23.8
		c2.8,1.3,5.4,2.8,7.8,4.5c-1.2,3.7-0.4,7.9,2.5,10.9c2.8,3,6.9,4.1,10.7,3.1c8.1,13.2,9.7,30.1,2.8,45.2
		C95,107.9,75.2,118.2,55.2,116c22.7,3.9,45.9-7.3,55.9-29.2C118.5,70.4,116.8,52.2,108.1,38z"/>
	<path class="st3" d="M108.3,37.5c2.2-4.1,1.7-9.2-1.7-12.8c-3.3-3.5-8.4-4.4-12.6-2.4c-2.6-1.8-5.4-3.5-8.4-4.9
		C59.4,5.5,28.6,17,16.6,43.1c-4,8.7-5.3,17.9-4.4,26.8c-0.3-7.3,1.1-14.7,4.3-21.8c11-24.2,39.6-34.8,63.8-23.8
		c2.8,1.3,5.4,2.8,7.8,4.5c-1.2,3.7-0.4,7.9,2.5,10.9c2.8,3,6.9,4.1,10.7,3.1c8.1,13.2,9.7,30.1,2.8,45.2
		c-8.8,19.3-28.9,30-48.9,27.8c22.7,3.9,46.1-7.7,56.1-29.7C118.7,70,117,51.8,108.3,37.5z"/>
	<g id="viewfinder_shade">
		<polygon class="st4" points="5,17.5 5,5.5 17,5.5 17,1.5 5,1.5 1,1.5 1,5.5 1,17.5 		"/>
		<polygon class="st4" points="113,5.5 125,5.5 125,17.5 129,17.5 129,5.5 129,1.5 125,1.5 113,1.5 		"/>
		<polygon class="st4" points="125,113.5 125,125.5 113,125.5 113,129.5 125,129.5 129,129.5 129,125.5 129,113.5 		"/>
		<polygon class="st4" points="17,125.5 5,125.5 5,113.5 1,113.5 1,125.5 1,129.5 5,129.5 17,129.5 		"/>
	</g>
	<g id="viewfinder_tint">
		<polygon class="st5" points="5,16.5 5,4.5 17,4.5 17,0.5 5,0.5 1,0.5 1,4.5 1,16.5 		"/>
		<polygon class="st5" points="113,4.5 125,4.5 125,16.5 129,16.5 129,4.5 129,0.5 125,0.5 113,0.5 		"/>
		<polygon class="st5" points="125,112.5 125,124.5 113,124.5 113,128.5 125,128.5 129,128.5 129,124.5 129,112.5 		"/>
		<polygon class="st5" points="17,124.5 5,124.5 5,112.5 1,112.5 1,124.5 1,128.5 5,128.5 17,128.5 		"/>
	</g>
</g>
</svg>
